<?xml version="1.0" encoding="utf-8"?>
<!-- Generator: Adobe Illustrator 16.0.0, SVG Export Plug-In . SVG Version: 6.00 Build 0)  -->
<!DOCTYPE svg PUBLIC "-//W3C//DTD SVG 1.0//EN" "http://www.w3.org/TR/2001/REC-SVG-20010904/DTD/svg10.dtd">
<svg version="1.0" id="Layer_1" xmlns="http://www.w3.org/2000/svg" xmlns:xlink="http://www.w3.org/1999/xlink" x="0px" y="0px"
	 width="550px" height="400px" viewBox="0 0 550 400" enable-background="new 0 0 550 400" xml:space="preserve">
<g>
	<path fill-rule="evenodd" clip-rule="evenodd" fill="#FFFFFF" d="M419.9,112.65c-2.567-4.533-5.334-6.8-8.301-6.8
		c-1.267,0-2.483,0.383-3.649,1.15c-3.134,2.133-5.983,7.083-8.55,14.85l-3.65,9.3c-1.366-3-0.2-7.75,3.5-14.25l-3.3-2.7l0.399-8.35
		l0.9-5.25l4.6-6.1l4.65-8.4c9.833-6.667,22.35-13.35,37.55-20.05l13.65,0.55l9,8.7l6.2,16.9l-3.7,6.5l5.1,5.15l9.101,8.55
		c1.6,12.033,3.066,25.333,4.399,39.9c2.733,29.067,4.267,53.417,4.601,73.05c0.366,23.467-3.684,42.134-12.15,56
		c-2.634,4.334-5.566,7.934-8.8,10.801l-4.05,3c-5.867,4.866-14.4,7.783-25.601,8.75l-25.2-7.2
		c-3.899-1.134-8.483-4.75-13.75-10.851l-1.5-4.5L383.1,237l-4.25-7.2c1.301-1.166,2.384-2.566,3.25-4.2l3.301-0.3
		c-3.467,4.3-2.45,8.617,3.05,12.95l-2.7-0.6L403.8,282c1.967,0.2,3.934-0.3,5.9-1.5c1.866-1.566,3.316-3.583,4.35-6.05
		c1.066-1.134,2.117-2.566,3.15-4.3c1.7-2.767,3.399-6.233,5.1-10.4c4.566-11.267,7.367-21.384,8.4-30.35
		c0.5-4.567,0.899-9.301,1.2-14.2l2.85-0.2l20.6-1.2l1-3.95H444.3h-12c0-1.199,0.033-2.866,0.101-5c0.8,0.4,1.35,0.584,1.649,0.551
		c0.334-0.034,1.334-0.2,3-0.5c1.634-0.301,3.533-1.301,5.7-3c2.134-1.733,3.45-3.984,3.95-6.75c0.5-2.733-0.066-5.133-1.7-7.2
		c-1.634-2.133-3.3-3.233-5-3.3c-1.733-0.133-2.884-0.1-3.45,0.1c-1.633-0.8-2.816-2.467-3.55-5c-0.366-1.167-0.634-2.517-0.8-4.05
		l-0.025-0.3c-0.017-0.308-0.024-0.625-0.024-0.95c-0.034-0.867-0.067-1.75-0.101-2.65c-0.333-5.533-0.783-10.833-1.35-15.9
		l5.649-8.05l-2.149-4.6l-4.3,6.55c-0.934-6.566-2.101-12.733-3.5-18.5C424.434,123.1,422.267,116.883,419.9,112.65z M372.8,196.85
		c0.5-7.833-3-14.35-10.5-19.55c-0.967-2.066-1.1-3.5-0.399-4.3c-0.2-0.1-0.4-0.217-0.601-0.35c-1.399-0.867-2.899-1.7-4.5-2.5
		l4.101,0.45l5.199,2.15h3.051l3.55-2.25l3.05-11.2l5.7-7.75l-0.5,8c-1.733,4.167-2.867,8.45-3.4,12.85c-0.2,1.2-0.316,2.4-0.35,3.6
		l3.35,3.4l-3.35-3.4c0.033-1.2,0.149-2.4,0.35-3.6l3.95,3.05l9.9-7.45l6.5-3.45l2.699,2.6l-9.55,6.7c-1.434,0-3.6,2.25-6.5,6.75
		c0,3.467,0.834,5.717,2.5,6.75l3.55,5.75c1.134,2.9,1.617,5.667,1.45,8.3v0.149c-0.166,1.634-0.566,3.217-1.2,4.75l-1.399,2.351
		v3.3l6.25-0.15h25.149l5.7-0.95l4.4,1.25l-2.25,3.25l-19.55,0.9l-7.051-0.1c-0.133-0.101-0.267-0.2-0.399-0.301
		c-1.101-0.733-2.434-1.1-4-1.1s-2.9,0.366-4,1.1c-0.134,0.067-0.25,0.15-0.351,0.25l-17.949,0.95l-4.051,2.9l-7.149-2.101
		l-0.95-4.699C367.483,208.283,370.667,202.85,372.8,196.85c1.934-9.867-1.7-17.817-10.899-23.85
		C371.1,179.033,374.733,186.983,372.8,196.85c-2.133,6-5.316,11.433-9.55,16.3l-2.1-10.101L372.8,196.85z M373.8,232.9l-6.45,1.199
		l-5.55-2l3.25-5.1l17.05-1.4c-0.866,1.634-1.949,3.034-3.25,4.2C377.417,231.1,375.733,232.134,373.8,232.9z M131.6,242.4
		l1.85-0.15l16.15-1.65l18.2-1.85l-18.2,1.85v-3.5l15.45-1.449l2.75,3.1c1.934,1.833,3.117,1.717,3.55-0.35l2.75-0.301
		c-0.267-2,0.917-3.533,3.55-4.6l25.4-2.15v3.801l8.25-0.851c-0.733-2.6-0.667-4.217,0.2-4.85l0.75-0.05h1.9
		c-0.867,1.199-0.867,2.75,0,4.649l11.5-1.2c2.967-1.666,3.934-3.316,2.9-4.949l5.85-0.551l9.75,0.5L243.8,231l37.15-2.35
		c-0.267,0.199-0.517,0.416-0.75,0.649c-1.2,1.167-1.8,2.566-1.8,4.2c0,1.667,0.6,3.083,1.8,4.25c1.233,1.167,2.7,1.75,4.399,1.75
		c0.167,0,0.351,0,0.551,0c-1.067-0.267-2.017-0.783-2.851-1.55c-1.267-1.167-1.899-2.584-1.899-4.25
		c0-1.667,0.633-3.084,1.899-4.25c0.434-0.367,0.9-0.684,1.4-0.95c0.767-0.4,1.633-0.65,2.6-0.75c0.434,0.1,0.851,0.267,1.25,0.5
		c0.5,0.267,0.983,0.616,1.45,1.05c1.233,1.167,1.85,2.566,1.85,4.2c0,1.667-0.616,3.083-1.85,4.25
		c-1.1,1.033-2.384,1.616-3.85,1.75c0.566,0.134,1.149,0.2,1.75,0.2c1.8,0,3.333-0.584,4.6-1.75c1.3-1.167,1.95-2.584,1.95-4.25
		c0-1.667-0.65-3.084-1.95-4.25c-0.667-0.566-1.4-1-2.2-1.3l11.05-0.7v-6.101l8.301-0.949l-8.301,0.949l-4,0.5l-2.05-3.399l21.2-1
		l1.45,2l-8.3,0.95c5.1,1.3,7.75,3.833,7.949,7.6c1.434-0.033,2.884-0.05,4.351-0.05c0.733-0.033,1.467-0.05,2.2-0.05
		c2.966-0.101,5.949-0.25,8.949-0.45c2.801-0.2,5.617-0.434,8.45-0.7c0.167,0.967,0.617,1.816,1.351,2.55l-2.65,8.45l-5.35-0.95
		l5.35,0.95l2.65-8.45l0.05,0.05c1.033,1,2.267,1.5,3.7,1.5c1.433,0,2.649-0.5,3.649-1.5s1.5-2.233,1.5-3.699c0-0.067,0-0.134,0-0.2
		c1.8-0.267,3.584-0.533,5.351-0.8c1.433,5.333-0.417,10.683-5.551,16.05l-3,1.399c-6.267,0.067-12.433,0.217-18.5,0.45l4.801-5.75
		c1.5-1.899,2.033-3.333,1.6-4.3c0-1.066-0.4-2.1-1.2-3.1c-0.6-0.801-1.333-1.45-2.2-1.95c0.867,0.5,1.601,1.149,2.2,1.95
		c0.8,1,1.2,2.033,1.2,3.1c-0.033,0.366-0.1,0.75-0.2,1.15c-0.366,1.433-1.35,2.483-2.95,3.149c-1.6,0.7-3.333,0.8-5.199,0.3
		c-1.233-0.333-2.284-0.866-3.15-1.6l-4.5,1.5c-9.866-1.2-17.017,0.35-21.45,4.65H258.1c-4.033-2.267-8.05-2.65-12.05-1.15l-1.3-1
		l-7.75-5.7l-0.05-2.1l-1.5,0.149l-9.8,1l9.8-1l-5.3,8.851l-0.65,1l-101.4,8.2L131.6,242.4z M130.15,217.85L116.1,218.9l-3.95-3.5
		l-3.95-3.601c-0.4,3.233-0.633,6.517-0.7,9.851l3,4.25c-0.233,3.233-0.233,6.767,0,10.6c0.067,1.767,0.2,3.6,0.4,5.5
		c0.567,5.967,1.583,12.55,3.05,19.75v2.55c-2.467-8.1-4.233-15.95-5.3-23.55l-4.75-3.7c-1.167-7.866-1.767-14.883-1.8-21.05
		c-0.033-0.967-0.033-1.9,0-2.8l3.95,0.05c-0.033-1.033-0.017-2.066,0.05-3.1l-3.8-0.65c0.133-2.4,0.383-4.65,0.75-6.75l-2.2-13.7
		l4.75,10.1l2.35,1.5l9.5-2.2l5.2-2.75l2.9,4.45l19.6-2.55c0.6,2,1.567,3.617,2.9,4.85l7.3-0.101l1.3,2.2l25.3-2.5
		c0.833,0.101,1.566,0.334,2.2,0.7c1.4,0.667,2.283,1.9,2.65,3.7l0.25,7.2l-3.2,0.199c0.267,3.134-0.867,6.017-3.4,8.65l-2.85-4.95
		l-28,4.05l-16.4,0.101l-1.25-1.55h4.85l47.05-6.301c-0.1-0.366-0.167-0.716-0.2-1.05c0.033,0.334,0.1,0.684,0.2,1.05l-47.05,6.301
		h-4.85l1.25,1.55l16.4-0.101l28-4.05l2.85,4.95c2.533-2.634,3.667-5.517,3.4-8.65l3.2-0.199l1.6-0.15l4.8-0.35l3,2.75h16.45
		l2.5-2.25l-1.15-2.051l-3,0.2l-0.7-3.899l12.95-1.7l7.3-0.9l1.65-0.25c0.233-1.7,1.4-3.149,3.5-4.35
		c-0.833-2.133-2.267-2.117-4.3,0.05l-8.4,0.1l0.1-1.95c-4.067,1.4-7.283,1.633-9.65,0.7v-3.9l37.35-2.4v2.3l-6.4,6v1.9l5.4-0.35
		l19.25-2.7l-4.6,5.3c-3.2-1.733-6.784-1.684-10.75,0.15c4.767-0.4,7.517,0.133,8.25,1.6l-2.25,5.1l1.75-0.149
		c1.5-4.167,3.316-5.834,5.45-5c0.434,0.399,0.867,0.833,1.3,1.3c0.367-0.833,0.75-1.616,1.15-2.35c2.9-5.434,7.433-7.8,13.6-7.101
		l2.95,0.35l-2.95-0.35c1.3-1.633,1.267-3.083-0.101-4.35c1.067-0.633,1.967-1.417,2.7-2.35l-0.399-2.1
		c-0.2-1,0.517-1.367,2.149-1.1c0.101-0.3,0.184-0.6,0.25-0.9c-0.066,0.3-0.149,0.6-0.25,0.9c-1.633-0.267-2.35,0.1-2.149,1.1
		l0.399,2.1c-0.733,0.933-1.633,1.717-2.7,2.35c-1.5,0.9-3.316,1.483-5.449,1.75c-0.667,0-1.284-0.083-1.851-0.25l-0.3-2.2
		l-2.7,0.35c-0.867-0.967-1.483-2.267-1.85-3.9c9.833-1,14.816-2.017,14.95-3.05c0.566,0.434,1.199,0.717,1.899,0.85
		c1.2,0.3,2.566,0.2,4.101-0.3c-0.301,1.733-1.4,3.5-3.301,5.3l-2.449,6.15l5.85,0.7l2.15,0.25v-3.3l5.6-0.2l18.45-0.65l4.1-0.15
		l2.65,4.05l-7.45,6.95l-19.75,4.65L293.2,213l-1,2.1l-19.4,1.7h-0.05L169.7,224l-36.95,1.95l-1.85-5.7l1.05-0.1L130.15,217.85
		l5.5-0.5c-0.133-0.399-0.2-0.816-0.2-1.25c0-1.533,0.683-2.916,2.05-4.149c1.4-1.167,3.083-1.816,5.05-1.95
		c1.934-0.134,3.6,0.267,5,1.2c1.367,0.967,2.05,2.217,2.05,3.75c0,0.366-0.033,0.717-0.1,1.05l17.25-1.6
		c0.733-1.467,1.867-2.817,3.4-4.051s2.684-1,3.45,0.7l5.1-0.5c1.267,0.267,1.9,1.117,1.9,2.55l3.05-0.3
		c-0.133-2.1,0.917-4.217,3.15-6.35l-28.45,3.399l28.45-3.399c-2.233,2.133-3.283,4.25-3.15,6.35l-3.05,0.3
		c0-1.433-0.633-2.283-1.9-2.55l-5.1,0.5c-0.767-1.7-1.917-1.934-3.45-0.7s-2.667,2.584-3.4,4.051L149.5,216
		c0.067-0.333,0.1-0.684,0.1-1.05c0-1.533-0.684-2.783-2.05-3.75c-1.4-0.934-3.066-1.334-5-1.2c-1.966,0.134-3.65,0.783-5.05,1.95
		c-1.367,1.233-2.05,2.616-2.05,4.149c0,0.434,0.066,0.851,0.2,1.25L130.15,217.85z M131.45,205.65l8.55,0.1L131.45,205.65z
		 M312,243.25c-1.167,0.033-2.316,0.083-3.45,0.15l1-4.7H313L312,243.25z M314.9,243.1l1.1-4.699h3.45l-1.05,4.55
		C317.233,242.983,316.066,243.033,314.9,243.1z M130.9,254.9c16.5-2.767,31.367-3.483,44.6-2.15
		c-12.667,0.866-26.867,3.267-42.6,7.2L130.9,254.9z M61.7,269.25l-7.4-7.3c-1.6-23.834-3.767-42.783-6.5-56.851
		c-0.133-0.533-0.25-1.066-0.35-1.6c-0.133,5.467-0.1,10.917,0.1,16.35l-4.7,8.9c-0.133-9.134,1.133-14.467,3.8-16l-1.85-8l2.8-5.25
		v-13.75l2.95-2.7l1.45,5.7l1.5-3.6c-0.033-1.6-0.05-3.217-0.05-4.85l5.85-5.4l7.15-4.1l3.65,0.65l3.45,2.15l21.1,4.85L83.15,200
		l8.25,22.25l-1.3,0.9l1.45,11.8L75.3,252.85V273.4l-1.75,2.85l-3.9-2.25l-3.5,0.45L61.7,269.25l0.5-4.55L57.95,252
		c-1.4-8.5-2.467-18.384-3.2-29.65l4.15,2.15c4.733-2.566,11.817-4.066,21.25-4.5l7.25,5l2.7-1.85L87.4,225l-7.25-5
		c-9.433,0.434-16.517,1.934-21.25,4.5l-4.15-2.15c0.733,11.267,1.8,21.15,3.2,29.65l4.25,12.7L61.7,269.25z M267.3,192.55
		c1.333,4.567-3.883,6.8-15.65,6.7c-0.333-3.333,1.434-5.9,5.3-7.7H266L267.3,192.55z M407.9,97.75c0.1-0.9-0.034-1.683-0.4-2.35
		c-0.333-0.633-0.8-0.95-1.4-0.95c-0.6,0-0.949,0.316-1.05,0.95c-0.1,0.667-0.35,1.45-0.75,2.35c-0.399,0.9-0.5,1.683-0.3,2.35
		c0.2,0.633,0.583,0.95,1.15,0.95c0.633,0,1.199-0.316,1.699-0.95C407.417,99.433,407.767,98.65,407.9,97.75z M329.15,193.85
		l-0.95,4.5l-1.65-0.25l-1.649-2.85l-4.45-0.85l-0.15-3.75l7.101-9.2l1-0.4l-2.75,10.6l3.5,2.15V193.85z M357,177.3
		c0.866-0.566,1.566-1.233,2.1-2c0.5,0.267,1,0.55,1.5,0.85c-0.566,0.233-0.949,0.583-1.149,1.05c-0.267,0.6-0.267,1.367,0,2.3
		l-11.5,0.75C347.083,178.983,350.1,178,357,177.3z M332.15,191.4c0.566-0.833,1.149-1.5,1.75-2c0.833-0.566,1.483-0.7,1.949-0.4
		c0.5,0.267,0.7,0.883,0.601,1.85c-0.066,1.033-0.417,2.1-1.05,3.2c-0.634,1.1-1.351,1.917-2.15,2.45
		c-0.167,0.133-0.333,0.25-0.5,0.35c-0.6,0.3-1.1,0.35-1.5,0.15c-0.467-0.3-0.65-0.95-0.55-1.95c0.1-0.966,0.467-2,1.1-3.1
		C331.934,191.75,332.05,191.567,332.15,191.4z M398.2,236.4c5.7,3.5,5.333,4.783-1.101,3.85l-8.649-2
		c-5.5-4.333-6.517-8.65-3.05-12.95l6.25-4.55c0.066,0.634,0.116,1.283,0.149,1.95c-3,0.7-3.899,2.967-2.7,6.8
		c0.034,1.9,1.367,3.55,4,4.95L398.2,236.4z M406.05,170.95l0.05,0.3L406.05,170.95c0.101-0.034,0.2-0.05,0.3-0.05
		c0.334,0,0.634,0.3,0.9,0.9c0.233,0.6,0.35,1.333,0.35,2.2c0,0.833-0.116,1.55-0.35,2.15c-0.267,0.6-0.566,0.9-0.9,0.9
		c-0.233,0-0.449-0.15-0.649-0.45c-0.066-0.133-0.15-0.283-0.25-0.45c-0.233-0.6-0.351-1.316-0.351-2.15
		c0-0.867,0.117-1.6,0.351-2.2C405.616,171.367,405.816,171.083,406.05,170.95z M399.25,180.55c0,1.267-0.167,2.333-0.5,3.2
		s-0.733,1.3-1.2,1.3s-0.85-0.433-1.149-1.3c-0.334-0.867-0.5-1.933-0.5-3.2c0-1.267,0.166-2.35,0.5-3.25
		c0.3-0.867,0.683-1.3,1.149-1.3s0.867,0.433,1.2,1.3C399.083,178.2,399.25,179.283,399.25,180.55z M426.25,152.3l3.65-2.5l4.3-6.55
		l2.149,4.6l-5.649,8.05L426.25,152.3z M434.75,215l9.55-5.15h12.05l-1,3.95L434.75,215z M419,260.95
		c0.533-4.8,0.134-8.167-1.2-10.101l-0.399-7l2.8,1.101c3.566-3.5,6.733-10.584,9.5-21.25c0.267-1,0.517-2.033,0.75-3.101
		c0.434-1.733,0.85-3.533,1.25-5.399h0.2c-0.301,4.899-0.7,9.633-1.2,14.2c-1.033,8.966-3.834,19.083-8.4,30.35
		c-1.7,4.167-3.399,7.634-5.1,10.4C418.066,266.65,418.667,263.583,419,260.95z M437.7,288.55l-2.9-0.7L437.7,288.55
		c1.166,0.634,1.75,1.066,1.75,1.3c0,0.5,0.283,0.934,0.85,1.301c0.601,0.366,1.3,0.55,2.101,0.55c0.833,0,1.533-0.184,2.1-0.55
		c0.467-0.301,0.75-0.634,0.85-1L437.7,288.55z M378.15,205.65c-0.967,0-1.801,0.35-2.5,1.05c-0.7,0.7-1.051,1.533-1.051,2.5
		s0.351,1.783,1.051,2.45c0.699,0.699,1.533,1.05,2.5,1.05c0.933,0,1.75-0.351,2.449-1.05c0.7-0.667,1.051-1.483,1.051-2.45
		s-0.351-1.8-1.051-2.5C379.9,206,379.083,205.65,378.15,205.65z M342.7,225.6c0.1-0.699,0.399-1.3,0.899-1.8
		c0.601-0.633,1.334-0.95,2.2-0.95c0.9,0,1.65,0.317,2.25,0.95c0.3,0.3,0.533,0.634,0.7,1c0.134,0.367,0.2,0.767,0.2,1.2
		c0,0.866-0.3,1.616-0.9,2.25c-0.6,0.634-1.35,0.95-2.25,0.95c-0.866,0-1.6-0.316-2.2-0.95c-0.633-0.634-0.949-1.384-0.949-2.25
		C342.65,225.866,342.667,225.733,342.7,225.6z M326.5,234.65l-2.5,0.85L326.5,234.65c0.3,0.133,0.634,0.25,1,0.35
		c1.134,0.3,2.184,0.25,3.15-0.15c0.933-0.399,1.517-1.05,1.75-1.949c0.133-0.434,0.133-0.867,0-1.301
		c-0.067-0.433-0.25-0.85-0.551-1.25c-0.633-0.8-1.517-1.35-2.649-1.649c-1.101-0.3-2.15-0.267-3.15,0.1
		c-0.934,0.434-1.517,1.084-1.75,1.95c-0.033,0.2-0.05,0.384-0.05,0.55l-3.05-0.1l-0.25-3.25l0.25,3.25l3.05,0.1l3.65,0.15v2.7
		L326.5,234.65z M287.55,189.4c-0.467,1.233-1.05,2.3-1.75,3.2C286.5,191.7,287.083,190.633,287.55,189.4z M106.55,205.3l21.85,0.3
		L106.55,205.3l1.65,6.5L106.55,205.3z M47.45,203.5c0.066-1.333,0.117-2.667,0.15-4l2.95-7.15l1.45-3.6l-1.45,3.6l-2.95,7.15
		C47.567,200.833,47.517,202.167,47.45,203.5z M69.1,177.3c13.1,1.633,19.617,3.434,19.55,5.4c-0.066,1.966-0.483,3.9-1.25,5.8
		l-8.5,3.85H62.05l-3.75-3.45l5.05-8.3L69.1,177.3l-5.75,3.3l-5.05,8.3l3.75,3.45H78.9l8.5-3.85c0.767-1.9,1.184-3.833,1.25-5.8
		C88.717,180.733,82.2,178.933,69.1,177.3z M66.45,170.8L53.5,185.15c0.067,11.567,0.383,22.183,0.95,31.85H65
		c2.7-1.4,8.667-2.167,17.9-2.3c-9.233,0.133-15.2,0.899-17.9,2.3H54.45c-0.567-9.667-0.883-20.283-0.95-31.85L66.45,170.8z
		 M148.05,202.45c1.333,1.2,3.034,2.05,5.1,2.55l3.5-0.45l-3.5,0.45C151.083,204.5,149.383,203.65,148.05,202.45l-16.6,3.2
		l-3.05-0.051l-2.85-5.449l2.85,5.449l3.05,0.051L148.05,202.45z M145.55,212.95c-0.833-0.601-1.833-0.851-3-0.75
		c-1.167,0.066-2.167,0.45-3,1.149c-0.833,0.733-1.25,1.551-1.25,2.45c0,0.467,0.117,0.884,0.35,1.25l7.9-0.75
		c0.167-0.333,0.25-0.7,0.25-1.1C146.8,214.267,146.383,213.517,145.55,212.95z M112.15,215.4l10.65-1.301v-0.05
		c0-0.5,0.167-0.916,0.5-1.25c0.367-0.366,0.8-0.55,1.3-0.55c0.467,0,0.883,0.184,1.25,0.55c0.267,0.267,0.417,0.566,0.45,0.9
		l4.8-0.601l-4.8,0.601c-0.033-0.334-0.183-0.634-0.45-0.9c-0.367-0.366-0.783-0.55-1.25-0.55c-0.5,0-0.934,0.184-1.3,0.55
		c-0.333,0.334-0.5,0.75-0.5,1.25v0.05L112.15,215.4z M126.3,213.7c0.034,0.1,0.05,0.217,0.05,0.35c0,0.5-0.167,0.917-0.5,1.25
		c-0.367,0.334-0.783,0.5-1.25,0.5c-0.5,0-0.934-0.166-1.3-0.5c-0.3-0.333-0.466-0.733-0.5-1.2c0.034,0.467,0.2,0.867,0.5,1.2
		c0.367,0.334,0.8,0.5,1.3,0.5c0.467,0,0.883-0.166,1.25-0.5c0.333-0.333,0.5-0.75,0.5-1.25
		C126.35,213.917,126.333,213.8,126.3,213.7z M106.1,210.15c0.066-1.634,0.217-3.25,0.45-4.851l-3.5-2.55l3.5,2.55
		C106.317,206.9,106.167,208.517,106.1,210.15z M108.65,240.75c-0.667-4.6-1.05-9.083-1.15-13.45c0-0.267,0-0.5,0-0.7
		c-0.967-4.6-1.45-9.05-1.45-13.35c0,4.3,0.483,8.75,1.45,13.35c0,0.2,0,0.434,0,0.7C107.6,231.667,107.983,236.15,108.65,240.75z
		 M107.5,221.65c-0.067,1.633-0.067,3.283,0,4.949C107.433,224.934,107.433,223.283,107.5,221.65z M54.75,222.35v-0.05
		c-0.967,0.8-2.167,0.5-3.6-0.899c-0.933-1.101-0.683-2.301,0.75-3.601c-1.433,1.3-1.683,2.5-0.75,3.601
		c1.434,1.399,2.633,1.699,3.6,0.899V222.35z M54.75,222.3c-0.1-1.733-0.2-3.5-0.3-5.3C54.55,218.8,54.65,220.566,54.75,222.3z
		 M59.2,235.65c0.066-0.733,0.517-1.4,1.35-2c0.8-0.634,1.75-1.017,2.85-1.15c1.133-0.167,2.067-0.05,2.8,0.35
		c0.733,0.434,1.083,1,1.05,1.7c-0.067,0.733-0.5,1.4-1.3,2c-0.8,0.634-1.767,1.033-2.9,1.2c-1.066,0.134-1.983,0-2.75-0.4
		C59.533,236.95,59.167,236.384,59.2,235.65c-0.034,0.733,0.333,1.3,1.1,1.699c0.767,0.4,1.684,0.534,2.75,0.4
		c1.133-0.167,2.1-0.566,2.9-1.2c0.8-0.6,1.233-1.267,1.3-2c0.033-0.7-0.317-1.267-1.05-1.7c-0.733-0.399-1.667-0.517-2.8-0.35
		c-1.1,0.134-2.05,0.517-2.85,1.15C59.717,234.25,59.267,234.917,59.2,235.65z M316.6,228c-5.399,0-10.816-0.184-16.25-0.55
		C305.783,227.816,311.2,228,316.6,228z M268.45,208.75c-0.367,1-0.717,2.083-1.05,3.25l-5.7,0.45l5.7-0.45
		C267.733,210.833,268.083,209.75,268.45,208.75z M253.95,205.9c-0.2,0.066-0.4,0.149-0.6,0.25l-0.55,4.6l0.55-4.6
		C253.55,206.05,253.75,205.967,253.95,205.9z M252.8,210.75l-10.2-0.85l-1.15-2.551l-1.15,1.4l2,3.6l10.35-0.399l-0.15,1.2
		l7.45-0.551l-7.45,0.551l0.15-1.2L252.8,210.75z M232.45,205.05l4.25,3.601v1.699v-1.699L232.45,205.05z M202.7,212.45l-2.9,0.2
		l-6.35,0.5l-4.8,0.35l1.35-6.9h8.2l2.95-1.199l-2.95,1.199H190c0.5-2.699,1.917-3.866,4.25-3.5h26.65l-17,1.95l-2.75,0.351
		l-1.35,7.25l1.35-7.25l2.75-0.351L202.7,212.45z M217.85,211.35v4.45l24.75-1.85l9.9-0.8l-9.9,0.8l-5.9-2.45v-1.15l-14,0.601
		L217.85,211.35l-2.45,2.301L217.85,211.35z M235.95,200.7c1.267-0.767,2.917-1.45,4.95-2.05
		C238.867,199.25,237.217,199.933,235.95,200.7z M222.7,210.95l0.8-4.75L222.7,210.95z M206,227.8l-38.1,3.55l1.95-3.399l1.15-2.15
		h33.85l0.6,1L206,227.8z M211.3,234.3l2.85-0.25L211.3,234.3z M236.95,231.7l6.85-0.7L236.95,231.7z M180.6,213.1l-13.85,1.301
		L180.6,213.1z M169.85,227.95l4.05,0.85l31.55-2l-31.55,2L169.85,227.95z M174.1,238.1l28.95-2.949L174.1,238.1z M244.65,203.5
		l-3.2,3.85L244.65,203.5z M108.2,211.8l75.95-9.05L108.2,211.8z M47.8,205.1c3-1.866,3.917-6.116,2.75-12.75
		C51.717,198.983,50.8,203.233,47.8,205.1z"/>
	<path fill-rule="evenodd" clip-rule="evenodd" fill="#01FFFF" d="M365.05,227l-3.25,5.1l-1.05,5.75l-1.5,3.15l-4.35-0.15
		L350.6,240.7c5.134-5.367,6.983-10.717,5.551-16.05c-1.767,0.267-3.551,0.533-5.351,0.8c-0.033-1.334-0.533-2.483-1.5-3.45
		c-1-1.033-2.217-1.55-3.649-1.55c-1.434,0-2.667,0.517-3.7,1.55c-1,1-1.5,2.217-1.5,3.65c0,0.366,0.033,0.733,0.1,1.1
		c-2.833,0.267-5.649,0.5-8.45,0.7c-3,0.2-5.983,0.35-8.949,0.45c-0.733,0-1.467,0.017-2.2,0.05c-1.467,0-2.917,0.017-4.351,0.05
		c-0.199-3.767-2.85-6.3-7.949-7.6l8.3-0.95l13.25-1.4l0.35,0.05l0.101-0.149l19.449-2.101v-3.05l-16.3,0.55l-0.6-3.1l-3.851,0.3
		l-2.949-5.35l0.1-3.55l-0.1,3.55l2.949,5.35l3.851-0.3l0.6,3.1l16.3-0.55v3.05l-19.449,2.101l-0.45,0.1l-13.25,1.4l-1.45-2l-1-1.4
		l2.95-5.35c0.934-1.9,3.95-4.917,9.05-9.05l0.05-3.55l1.65,0.25l0.95-4.5v-0.05c-1.034-5.333,0.583-8.867,4.85-10.6
		c0.566-0.267,1.184-0.483,1.85-0.65l0.45-1.6l11.65-0.7l11.5-0.75c-0.267-0.933-0.267-1.7,0-2.3c0.2-0.467,0.583-0.817,1.149-1.05
		c0.567,0.367,1.134,0.75,1.7,1.15c7.5,5.2,11,11.717,10.5,19.55l-11.649,6.2l2.1,10.101l0.95,4.699l7.149,2.101l4.051-2.9
		l17.949-0.95c0.101-0.1,0.217-0.183,0.351-0.25c1.1-0.733,2.434-1.1,4-1.1s2.899,0.366,4,1.1c0.133,0.101,0.267,0.2,0.399,0.301
		c0.834,0.666,1.25,1.466,1.25,2.399c0,1.066-0.55,1.983-1.649,2.75c-1.101,0.733-2.434,1.101-4,1.101s-2.9-0.367-4-1.101
		c-0.7-0.5-1.184-1.05-1.45-1.649c-0.134,0.433-0.333,0.8-0.6,1.1l-27.15,2.3L365.05,227z M364.5,223.05
		c-1.1,0.233-2.217,0.45-3.35,0.65c-1.667,0.333-3.334,0.649-5,0.95c1.666-0.301,3.333-0.617,5-0.95
		C362.283,223.5,363.4,223.283,364.5,223.05z M359.1,175.3c-0.533,0.767-1.233,1.434-2.1,2l-10.45,0.5l2.2-4.85l7.7-1.25
		L359.1,175.3z M230.15,240.7l5.3-8.851l1.5-0.149l0.05,2.1l7.75,5.7l1.3,1l1.4,4.9l-12,0.449l-2.35,0.101l-6.25,0.2l2.65-4.45
		L230.15,240.7z M54.3,261.95l7.4,7.3l4.45,5.2l5.6,6.5H62.8c-0.767-2.101-1.5-4.033-2.2-5.8C58.2,268.85,56.1,264.45,54.3,261.95
		l-2.35-2.3l-0.45-5.15c-0.833-4.366-1.533-8.733-2.1-13.1c-0.2-1.534-0.383-3.067-0.55-4.601c-0.667-5.633-1.1-11.283-1.3-16.95
		c-0.2-5.433-0.233-10.883-0.1-16.35c0.1,0.533,0.216,1.066,0.35,1.6C50.533,219.167,52.7,238.116,54.3,261.95z M49.4,241.4
		l-3.35,4.6c-1.033-1.833-2.1-3.9-3.2-6.2v-8.35l3,2.7l3,2.649C49.017,238.333,49.2,239.866,49.4,241.4z M53.45,180.3
		c0,1.633,0.017,3.25,0.05,4.85l-1.5,3.6l-1.45-5.7L53.45,180.3z M103.9,237.05l-2.15-1.7l-7.7-6l-2.65-7.1l3.5-2.45l-3.5,2.45
		L83.15,200l11.5-21.55l1.4,0.35l4.8,10.25l2.2,13.7c-0.367,2.1-0.617,4.35-0.75,6.75l3.8,0.65c-0.067,1.033-0.083,2.066-0.05,3.1
		l-3.95-0.05c0.033-1.267,0.1-2.5,0.2-3.7c-0.1,1.2-0.167,2.434-0.2,3.7c-0.033,0.899-0.033,1.833,0,2.8
		C102.133,222.167,102.733,229.184,103.9,237.05z M407.9,97.75c-0.134,0.9-0.483,1.683-1.051,2.35c-0.5,0.633-1.066,0.95-1.699,0.95
		c-0.567,0-0.95-0.316-1.15-0.95c-0.2-0.667-0.1-1.45,0.3-2.35c0.4-0.9,0.65-1.683,0.75-2.35c0.101-0.633,0.45-0.95,1.05-0.95
		c0.601,0,1.067,0.316,1.4,0.95C407.866,96.067,408,96.85,407.9,97.75z M404.4,161.1l18.199-6.25c0.067-1.3,0.233-2.633,0.5-4
		l2.101-4.55c-4.634-12.533-6.4-23.75-5.3-33.65c-1.101,9.9,0.666,21.117,5.3,33.65l-2.101,4.55c-0.267,1.367-0.433,2.7-0.5,4
		L404.4,161.1l-0.9-5.1l1.7-2.65l-2.4-5.9l0.9-25.45l4.25-15c1.166-0.767,2.383-1.15,3.649-1.15c2.967,0,5.733,2.267,8.301,6.8
		c2.366,4.233,4.533,10.45,6.5,18.65c1.399,5.767,2.566,11.934,3.5,18.5l-3.65,2.5l4.45,3.6l-1.25,0.3v13.35l-4.2-4.85
		c1.066,1.7,2.467,3.316,4.2,4.85v31.601l2.95,3.699c-0.067,2.134-0.101,3.801-0.101,5h12l-9.55,5.15l-2.85,0.2h-0.2
		c-0.4,1.866-0.816,3.666-1.25,5.399c-0.233,1.067-0.483,2.101-0.75,3.101c-2.767,10.666-5.934,17.75-9.5,21.25l-2.8-1.101
		l-2.75-1.05l2.75,1.05l0.399,7c-0.467-0.633-1.05-1.116-1.75-1.449c0.7,0.333,1.283,0.816,1.75,1.449
		c1.334,1.934,1.733,5.301,1.2,10.101c-4.467,0-5.45-3.851-2.95-11.55c-2.633-2.667-6.083-5.051-10.35-7.15l-8.601-2
		c6.434,0.934,6.801-0.35,1.101-3.85l16.45,6.399c2.833-5.133,2.166-8.35-2-9.649c-4.434-2.367-5.101-5.567-2-9.601
		c1.699-2.866,1.199-5.3-1.5-7.3l19.55-0.9l2.25-3.25l-4.4-1.25l-5.7,0.95H395.7c-1.566-0.467-2.634-1.783-3.2-3.95
		c2.934-5.899,7.066-9.383,12.4-10.45l2-7.3c-1.634-2.7-2.034-7.2-1.2-13.5c0.2,0.3,0.416,0.45,0.649,0.45
		c0.334,0,0.634-0.3,0.9-0.9c0.233-0.6,0.35-1.316,0.35-2.15c0-0.867-0.116-1.6-0.35-2.2c-0.267-0.6-0.566-0.9-0.9-0.9
		c-0.1,0-0.199,0.017-0.3,0.05l-1.149-6.8l-4.301,3l-2.699-2.6L404.4,161.1z M395.75,131.15l-6.6,16.7l-6.15,7.3
		c-0.767,1.434-1.45,2.9-2.05,4.4l0.5-8l1.25-7l4.899-2.35l7.9-19.8l0.45-8.2l3.3,2.7C395.55,123.4,394.384,128.15,395.75,131.15z
		 M432.3,209.85l-5.75,1L432.3,209.85z M343.75,177.95l-5.85,0.25l2.399-4.05l5.75-1.15L343.75,177.95z M335.85,189
		c1.367-1.3,2.117-0.5,2.25,2.4c-1.166,3.9-3.017,6.15-5.55,6.75c-0.934,0.767-1.116,1.95-0.55,3.55l-2.55,3.35l2.55-3.35
		c-0.566-1.601-0.384-2.784,0.55-3.55c2.533-0.6,4.384-2.85,5.55-6.75C337.967,188.5,337.217,187.7,335.85,189
		c-0.466-0.3-1.116-0.167-1.949,0.4c-0.601,0.5-1.184,1.167-1.75,2c-1.867-3.066-0.634-6.017,3.699-8.85
		c-4.333,2.833-5.566,5.784-3.699,8.85c-0.101,0.167-0.217,0.35-0.351,0.55c-0.633,1.1-1,2.133-1.1,3.1
		c-0.101,1,0.083,1.65,0.55,1.95c0.4,0.2,0.9,0.15,1.5-0.15c0.167-0.1,0.333-0.217,0.5-0.35c0.8-0.533,1.517-1.35,2.15-2.45
		c0.633-1.1,0.983-2.167,1.05-3.2C336.55,189.883,336.35,189.267,335.85,189z M329.15,193.85c0.466,2.267,1.416,4.883,2.85,7.85
		C330.566,198.733,329.616,196.117,329.15,193.85z M328.5,174.05l-4.65,6.7l1.65,0.7l-7.15,9.2l-0.149,5.8l-18.45,0.65l2.2-5.65
		c1.6-1.467,2.633-2.934,3.1-4.4h0.05l3.9-4.6v-4.5l11.25-4.55l7.15-1.3L328.5,174.05z M399.35,231.8c0.301-0.2,0.65-0.3,1.051-0.3
		c0.433,0,0.8,0.1,1.1,0.3c0.3,0.267,0.45,0.55,0.45,0.851c0,0.333-0.15,0.616-0.45,0.85s-0.667,0.35-1.1,0.35
		c-0.4,0-0.75-0.116-1.051-0.35c-0.3-0.233-0.449-0.517-0.449-0.85C398.9,232.35,399.05,232.066,399.35,231.8z M426.25,152.3
		l-3.65,2.55L426.25,152.3z M425.25,164.7c-1.366-2.2-2.2-4.517-2.5-6.95l-12.85,3.75l-5,2.65l5-2.65l12.85-3.75
		C423.05,160.183,423.884,162.5,425.25,164.7z M429.45,156.2l-6.7,1.55L429.45,156.2z M413.6,203.85
		c-1.866-4.899-1-8.966,2.601-12.2c3.633-3.3,3.684-6.316,0.149-9.05c-2.5-3.4-1.866-6.8,1.9-10.2c-3.767,3.4-4.4,6.8-1.9,10.2
		c3.534,2.733,3.483,5.75-0.149,9.05C412.6,194.883,411.733,198.95,413.6,203.85z M439.95,200.25c-1.066-0.066-1.983-0.65-2.75-1.75
		c-0.834-1.133-1.25-2.5-1.25-4.1c0-1.633,0.416-3.017,1.25-4.15c0.8-1.167,1.783-1.75,2.95-1.75c1.166,0,2.149,0.583,2.949,1.75
		c0.834,1.133,1.25,2.517,1.25,4.15c0,1.6-0.416,2.967-1.25,4.1c-0.8,1.167-1.783,1.75-2.949,1.75
		C440.083,200.25,440.017,200.25,439.95,200.25z M431.7,215.2l-3,0.149L431.7,215.2z M376.9,206.9c0.5-0.467,1.083-0.7,1.75-0.7
		c0.666,0,1.233,0.233,1.699,0.7c0.5,0.5,0.75,1.083,0.75,1.75c0,0.666-0.25,1.233-0.75,1.699c-0.466,0.5-1.033,0.75-1.699,0.75
		c-0.667,0-1.25-0.25-1.75-0.75c-0.467-0.466-0.7-1.033-0.7-1.699C376.2,207.983,376.434,207.4,376.9,206.9z M363.25,213.15
		l-2.5,3.149L363.25,213.15z M330.2,218.05l-5.95-1l-5.9-1l3-5.35c0.7-1.5,2.384-3.334,5.051-5.5c-2.667,2.166-4.351,4-5.051,5.5
		l-3,5.35l5.9,1L330.2,218.05z M330.65,217.95l3.149-4.601L330.65,217.95z M324.25,217.05l5.1-6.5L324.25,217.05z M354.9,240.85
		c4.533-5.1,6.616-10.816,6.25-17.149C361.517,230.033,359.434,235.75,354.9,240.85z M275.8,196.45c-1.2-0.333-2.2-0.95-3-1.85
		l2.7-0.35L275.8,196.45z M118.35,235.95l49.55-4.601l38.1-3.55l4.8-0.45c0.867-0.166,1.35,0.517,1.45,2.051l-0.75,0.05
		c-0.867,0.633-0.933,2.25-0.2,4.85l-8.25,0.851v-3.801l2.75-0.3l-2.75,0.3l-25.4,2.15c-2.633,1.066-3.816,2.6-3.55,4.6l-2.75,0.301
		l0.05-4.351l-0.05,4.351c-0.434,2.066-1.617,2.183-3.55,0.35l-2.75-3.1L149.6,237.1v3.5l-16.15,1.65l1.45-3.95l-17.9,2.8l17.9-2.8
		l-1.45,3.95l-1.85,0.15l-16.75,1.75c0.867-0.9,1.583-1.917,2.15-3.051C117.733,239.566,118.183,237.85,118.35,235.95z
		 M110.85,222.15l3.3,4.949c-0.433,3.101-0.6,6.367-0.5,9.801l-3.15-0.4l3.15,0.4c0.033,2.233,0.2,4.517,0.5,6.85L110.9,242
		c-0.2-1.9-0.333-3.733-0.4-5.5c-0.233-3.833-0.233-7.366,0-10.6C110.567,224.6,110.683,223.35,110.85,222.15z M93,246.7
		l-15.55,31.8l-3.9-2.25l1.75-2.85V252.85l16.25-17.899L93,246.7z M101.75,235.35c-2.033-7.733-2.417-16.633-1.15-26.699l-5.95-30.2
		l5.95,30.2C99.333,218.717,99.717,227.616,101.75,235.35z M96.35,214.4l-2.3,14.949L96.35,214.4z M46.05,246l-0.2-11.85L46.05,246z
		 M60.6,275.15l5.55-0.7L60.6,275.15z M252.65,226.9l43.7-5.051l4-0.5v6.101l-11.05,0.7c0.8,0.3,1.533,0.733,2.2,1.3
		c1.3,1.166,1.95,2.583,1.95,4.25c0,1.666-0.65,3.083-1.95,4.25c-1.267,1.166-2.8,1.75-4.6,1.75c-0.601,0-1.184-0.066-1.75-0.2
		c1.466-0.134,2.75-0.717,3.85-1.75c1.233-1.167,1.85-2.583,1.85-4.25c0-1.634-0.616-3.033-1.85-4.2
		c-0.467-0.434-0.95-0.783-1.45-1.05c-0.399-0.233-0.816-0.4-1.25-0.5c-0.967,0.1-1.833,0.35-2.6,0.75
		c-0.5,0.267-0.967,0.583-1.4,0.95c-1.267,1.166-1.899,2.583-1.899,4.25c0,1.666,0.633,3.083,1.899,4.25
		c0.834,0.767,1.783,1.283,2.851,1.55c-0.2,0-0.384,0-0.551,0c-1.699,0-3.166-0.583-4.399-1.75c-1.2-1.167-1.8-2.583-1.8-4.25
		c0-1.634,0.6-3.033,1.8-4.2c0.233-0.233,0.483-0.45,0.75-0.649L243.8,231l0.35-3.15L252.65,226.9z M217.85,211.35l4.85-0.399
		l14-0.601v1.15l5.9,2.45l-24.75,1.85V211.35z M202.7,212.45l1.2-7.4l17-1.95l2.2-0.25l0.15-2l8.4-0.1
		c2.033-2.167,3.467-2.183,4.3-0.05c-2.1,1.2-3.267,2.649-3.5,4.35l-1.65,0.25c0-1.899,0.284-3.416,0.85-4.55
		c-0.566,1.134-0.85,2.65-0.85,4.55l-7.3,0.9l-12.95,1.7l-6.65,0.8l6.65-0.8l0.7,3.899L202.7,212.45z M246.05,240.5l-3.25,4.75
		l-1.8-5.45l-2.4,0.15l-3.15,5.899l3.15-5.899l2.4-0.15l1.8,5.45L246.05,240.5z M238.6,239.95l-8.45,0.75l2.95,5.25l-2.95-5.25
		L238.6,239.95z M244.75,239.5l-3.75,0.3L244.75,239.5z"/>
	<path fill-rule="evenodd" clip-rule="evenodd" fill="#6600FF" d="M474.3,103.85l-5.1-5.15l3.7-6.5l1.399,3.75V103.85z
		 M402.1,216.15l7.051,0.1c2.699,2,3.199,4.434,1.5,7.3c-3.101,4.033-2.434,7.233,2,9.601c4.166,1.3,4.833,4.517,2,9.649
		L398.2,236.4l-5.101-1.95c-2.633-1.4-3.966-3.05-4-4.95c-1.199-3.833-0.3-6.1,2.7-6.8c-0.033-0.667-0.083-1.316-0.149-1.95
		l-6.25,4.55l-3.301,0.3l-17.05,1.4l-0.55-3.95l27.15-2.3c0.267-0.3,0.466-0.667,0.6-1.1c0.267,0.6,0.75,1.149,1.45,1.649
		c1.1,0.733,2.434,1.101,4,1.101s2.899-0.367,4-1.101c1.1-0.767,1.649-1.684,1.649-2.75
		C403.35,217.616,402.934,216.816,402.1,216.15z M373.8,232.9c1.934-0.767,3.617-1.801,5.05-3.101l4.25,7.2L373.8,232.9z
		 M318.4,242.95l1.05-4.55H316l-1.1,4.699c-0.967,0.034-1.934,0.084-2.9,0.15l1-4.55h-3.45l-1,4.7
		c-12.133,0.633-23.967,1.5-35.5,2.6l-10.75,2.45l-0.45-3.05l-7.15-0.15l-1.05,3.2l-4.7-2.15l-1.5-0.899l-1.4-4.9
		c4-1.5,8.017-1.116,12.05,1.15h39.95c4.434-4.301,11.584-5.851,21.45-4.65l4.5-1.5c0.866,0.733,1.917,1.267,3.15,1.6
		c1.866,0.5,3.6,0.4,5.199-0.3c1.601-0.666,2.584-1.717,2.95-3.149c0.101-0.4,0.167-0.784,0.2-1.15c0.434,0.967-0.1,2.4-1.6,4.3
		l-4.801,5.75l-4.949-5.05c-2.7,0.6-3.617,2.366-2.75,5.3C320.4,242.833,319.4,242.884,318.4,242.95z M175.5,252.75
		c-13.233-1.333-28.1-0.616-44.6,2.15l-13.75,3.649L116.4,261l-2.45,0.75c-1.467-7.2-2.483-13.783-3.05-19.75l3.25,1.75
		c-0.3-2.333-0.467-4.616-0.5-6.85c-0.1-3.434,0.067-6.7,0.5-9.801c0.5,5.5,1.9,8.45,4.2,8.851c-2.3-0.4-3.7-3.351-4.2-8.851
		l-3.3-4.949c0.3-2.434,0.733-4.684,1.3-6.75c-0.566,2.066-1,4.316-1.3,6.75c-0.167,1.199-0.283,2.449-0.35,3.75l-3-4.25
		c0.067-3.334,0.3-6.617,0.7-9.851l3.95,3.601l3.95,3.5l14.05-1.051l0.75,2.4l1.85,5.7L169.7,224l1.3,1.8l-1.15,2.15l-1.95,3.399
		l-49.55,4.601c-0.167,1.899-0.617,3.616-1.35,5.149c-0.567,1.134-1.283,2.15-2.15,3.051l16.75-1.75l-3.5,7.5l101.4-8.2l-2.65,4.45
		l-1.35,1.699l-43.75,2.351l-2,2.3c-0.567,0.033-1.133,0.066-1.7,0.1L175.5,252.75z M73.55,276.25l3.9,2.25L93,246.7l-1.45-11.75
		l-1.45-11.8l1.3-0.9l2.65,7.1l7.7,6l2.15,1.7l-7.4,9.4l-1.8-3.2L93,246.7l1.7-3.45l1.8,3.2l7.4-9.4l4.75,3.7
		c1.067,7.6,2.833,15.45,5.3,23.55l-9.8,16.65c-2.3,3.3-5.333,6.184-9.1,8.649L94.9,291.7c-6.267,1.333-12.566,1.333-18.9,0
		l-3.75-6.15l-0.5-4.6l-5.6-6.5l3.5-0.45L73.55,276.25z M46.05,246l3.35-4.6c0.567,4.366,1.267,8.733,2.1,13.1
		C49.833,252.5,48.017,249.667,46.05,246z M42.85,228.75l4.7-8.9c0.2,5.667,0.633,11.317,1.3,16.95l-3-2.649l-3-2.7V228.75z
		 M190,206.6l-1.35,6.9l-1.6,0.15l-0.25-7.2c-0.367-1.8-1.25-3.033-2.65-3.7l1.8-1.05c0.5-1.601,5.917-2.35,16.25-2.25
		c1.566,0.033,3.233,0.083,5,0.15c2.167,1.333,4.333,1.333,6.5,0c2.367,0.933,5.583,0.7,9.65-0.7l-0.1,1.95l-0.15,2l-2.2,0.25
		h-26.65C191.917,202.733,190.5,203.9,190,206.6z M269.6,206.4c-0.167-2.934,0.75-5.301,2.75-7.101c-1.8-2.1-2.667-4.5-2.6-7.2
		c-0.067,2.7,0.8,5.1,2.6,7.2C270.35,201.1,269.433,203.467,269.6,206.4c-0.4,0.733-0.783,1.517-1.15,2.35
		c-0.434-0.467-0.867-0.9-1.3-1.3c-2.133-0.834-3.95,0.833-5.45,5l-1.75,0.149l2.25-5.1c-0.733-1.467-3.483-2-8.25-1.6
		c3.966-1.834,7.55-1.884,10.75-0.15l4.6-5.3l-19.25,2.7l-5.4,0.35v-1.9l6.4-6v-2.3l3.05-1.75h2.85c-3.867,1.8-5.633,4.367-5.3,7.7
		c11.767,0.1,16.983-2.133,15.65-6.7l1.3,1l1.15-1.45l1.2-1.4c0.367,1.633,0.983,2.933,1.85,3.9c0.8,0.9,1.8,1.517,3,1.85
		c0.566,0.167,1.184,0.25,1.851,0.25c2.133-0.267,3.949-0.85,5.449-1.75c1.367,1.267,1.4,2.716,0.101,4.35
		C277.033,198.6,272.5,200.967,269.6,206.4z M272.75,216.8h0.05l19.4-1.7l1-2.1l4.55-1.05l19.75-4.65l7.45-6.95l-2.65-4.05
		l-4.1,0.15l0.149-5.8l7.15-9.2l-1.65-0.7l4.65-6.7l9.1-1.3l3.2-1.7l6.95-0.9l2.15,0.7l6.899-0.7c1.601,0.8,3.101,1.633,4.5,2.5
		c0.2,0.133,0.4,0.25,0.601,0.35c-0.7,0.8-0.567,2.233,0.399,4.3c-0.566-0.4-1.133-0.783-1.7-1.15c-0.5-0.3-1-0.583-1.5-0.85
		l-2.649-3.6l-7.7,1.25l-2.2,4.85l10.45-0.5c-6.9,0.7-9.917,1.684-9.05,2.95l-11.65,0.7l-0.45,1.6
		c-0.666,0.167-1.283,0.383-1.85,0.65c-4.267,1.733-5.884,5.267-4.85,10.6l-3.5-2.15l2.75-10.6l3.75-1.55L336,179l1.6-6.25L336,179
		l-3.85,0.5l-3.75,1.55l0.75-2.85l-0.75,2.85l-1,0.4l-7.101,9.2l0.15,3.75l4.45,0.85l1.649,2.85l-0.05,3.55
		c-5.1,4.133-8.116,7.149-9.05,9.05l-2.95,5.35l1,1.4l-21.2,1l2.05,3.399l-43.7,5.051c6.333-1.467,9.967-3.084,10.9-4.851
		C268.083,221.05,271.15,219.3,272.75,216.8z M299.75,197.1l-5.6,0.2v3.3l-2.15-0.25l-5.85-0.7l2.449-6.15
		c1.9-1.8,3-3.567,3.301-5.3c0.433-0.167,0.883-0.35,1.35-0.55h5.4l3-0.85l3.399,0.25c-0.467,1.467-1.5,2.934-3.1,4.4L299.75,197.1z
		 M380.95,159.55c0.6-1.5,1.283-2.966,2.05-4.4l6.15-7.3l6.6-16.7l3.65-9.3c2.566-7.767,5.416-12.717,8.55-14.85l-4.25,15
		l-0.9,25.45l2.4,5.9l-1.7,2.65l0.9,5.1l-6.5,3.45l-6.5,3.45l-9.9,7.45l-3.95-3.05C378.083,168,379.217,163.717,380.95,159.55z
		 M343.75,177.95l2.3-4.95l-5.75,1.15l-2.399,4.05L343.75,177.95z M399.35,231.8c-0.3,0.267-0.449,0.55-0.449,0.851
		c0,0.333,0.149,0.616,0.449,0.85c0.301,0.233,0.65,0.35,1.051,0.35c0.433,0,0.8-0.116,1.1-0.35s0.45-0.517,0.45-0.85
		c0-0.301-0.15-0.584-0.45-0.851c-0.3-0.2-0.667-0.3-1.1-0.3C400,231.5,399.65,231.6,399.35,231.8z M392.5,207.85
		c0.566,2.167,1.634,3.483,3.2,3.95l-6.25,0.15v-3.3l1.399-2.351c0.634-1.533,1.034-3.116,1.2-4.75
		C391.884,204.116,392.033,206.217,392.5,207.85c-0.467-1.633-0.616-3.733-0.45-6.3V201.4c0.167-2.634-0.316-5.4-1.45-8.3
		l-3.55-5.75c-1.666-1.033-2.5-3.283-2.5-6.75c2.9-4.5,5.066-6.75,6.5-6.75l9.55-6.7l4.301-3l1.149,6.8
		c-0.233,0.133-0.434,0.417-0.6,0.85c-0.233,0.6-0.351,1.333-0.351,2.2c0,0.833,0.117,1.55,0.351,2.15
		c0.1,0.167,0.184,0.317,0.25,0.45c-0.834,6.3-0.434,10.8,1.2,13.5l-2,7.3C399.566,198.467,395.434,201.95,392.5,207.85z
		 M399.25,180.55c0-1.267-0.167-2.35-0.5-3.25c-0.333-0.867-0.733-1.3-1.2-1.3s-0.85,0.433-1.149,1.3c-0.334,0.9-0.5,1.983-0.5,3.25
		c0,1.267,0.166,2.333,0.5,3.2c0.3,0.867,0.683,1.3,1.149,1.3s0.867-0.433,1.2-1.3S399.25,181.817,399.25,180.55z M432.4,204.85
		l-2.95-3.699V169.55V156.2l1.25-0.3c0.566,5.067,1.017,10.367,1.35,15.9c0,1.283,0.042,2.483,0.125,3.6l0.025,0.3
		c0.166,1.533,0.434,2.883,0.8,4.05c0.733,2.533,1.917,4.2,3.55,5c0.566-0.2,1.717-0.233,3.45-0.1c1.7,0.067,3.366,1.167,5,3.3
		c1.634,2.066,2.2,4.466,1.7,7.2c-0.5,2.767-1.816,5.017-3.95,6.75c-2.167,1.699-4.066,2.699-5.7,3c-1.666,0.3-2.666,0.466-3,0.5
		C433.75,205.434,433.2,205.25,432.4,204.85z M388.45,238.25l11.95,31.15c0.199,0.6,0.883,2.316,2.05,5.149
		c1.2,2.8,3.2,3.783,6,2.95c2.833-0.9,4.7-1.917,5.6-3.05c-4.6,1.5-5.316-1.783-2.149-9.851c-3.167,8.067-2.45,11.351,2.149,9.851
		c-0.899,1.133-2.767,2.149-5.6,3.05c-2.8,0.833-4.8-0.15-6-2.95c-1.167-2.833-1.851-4.55-2.05-5.149L388.45,238.25l8.649,2l8.601,2
		c4.267,2.1,7.717,4.483,10.35,7.15c-2.5,7.699-1.517,11.55,2.95,11.55c-0.333,2.633-0.934,5.7-1.8,9.2
		c-1.033,1.733-2.084,3.166-3.15,4.3c-1.033,2.467-2.483,4.483-4.35,6.05c-1.967,1.2-3.934,1.7-5.9,1.5l-18.05-44.35L388.45,238.25z
		 M439.95,200.25l-2.3,1.7c-1.867,1.399-3.417,0.95-4.65-1.351v-20.85v20.85c1.233,2.301,2.783,2.75,4.65,1.351L439.95,200.25
		c0.066,0,0.133,0,0.2,0c1.166,0,2.149-0.583,2.949-1.75c0.834-1.133,1.25-2.5,1.25-4.1c0-1.633-0.416-3.017-1.25-4.15
		c-0.8-1.167-1.783-1.75-2.949-1.75c-1.167,0-2.15,0.583-2.95,1.75c-0.834,1.133-1.25,2.517-1.25,4.15c0,1.6,0.416,2.967,1.25,4.1
		C437.967,199.6,438.884,200.184,439.95,200.25z M437.7,288.55l7.649,1.601c-0.1,0.366-0.383,0.699-0.85,1
		c-0.566,0.366-1.267,0.55-2.1,0.55c-0.801,0-1.5-0.184-2.101-0.55c-0.566-0.367-0.85-0.801-0.85-1.301
		C439.45,289.616,438.866,289.184,437.7,288.55z M376.9,206.9c-0.467,0.5-0.7,1.083-0.7,1.75c0,0.666,0.233,1.233,0.7,1.699
		c0.5,0.5,1.083,0.75,1.75,0.75c0.666,0,1.233-0.25,1.699-0.75c0.5-0.466,0.75-1.033,0.75-1.699c0-0.667-0.25-1.25-0.75-1.75
		c-0.466-0.467-1.033-0.7-1.699-0.7C377.983,206.2,377.4,206.434,376.9,206.9z M378.15,205.65c0.933,0,1.75,0.35,2.449,1.05
		c0.7,0.7,1.051,1.533,1.051,2.5s-0.351,1.783-1.051,2.45c-0.699,0.699-1.517,1.05-2.449,1.05c-0.967,0-1.801-0.351-2.5-1.05
		c-0.7-0.667-1.051-1.483-1.051-2.45s0.351-1.8,1.051-2.5C376.35,206,377.184,205.65,378.15,205.65z M350.8,225.45
		c0,0.066,0,0.133,0,0.2c0,1.466-0.5,2.699-1.5,3.699s-2.217,1.5-3.649,1.5c-1.434,0-2.667-0.5-3.7-1.5l-0.05-0.05
		c-0.733-0.733-1.184-1.583-1.351-2.55c-0.066-0.366-0.1-0.733-0.1-1.1c0-1.434,0.5-2.65,1.5-3.65c1.033-1.033,2.267-1.55,3.7-1.55
		c1.433,0,2.649,0.517,3.649,1.55C350.267,222.967,350.767,224.116,350.8,225.45z M342.7,225.6c-0.033,0.134-0.05,0.267-0.05,0.4
		c0,0.866,0.316,1.616,0.949,2.25c0.601,0.634,1.334,0.95,2.2,0.95c0.9,0,1.65-0.316,2.25-0.95c0.601-0.634,0.9-1.384,0.9-2.25
		c0-0.434-0.066-0.833-0.2-1.2c-0.167-0.366-0.4-0.7-0.7-1c-0.6-0.633-1.35-0.95-2.25-0.95c-0.866,0-1.6,0.317-2.2,0.95
		C343.1,224.3,342.8,224.9,342.7,225.6z M324.25,231.3c0-0.166,0.017-0.35,0.05-0.55c0.233-0.866,0.816-1.517,1.75-1.95
		c1-0.366,2.05-0.399,3.15-0.1c1.133,0.3,2.017,0.85,2.649,1.649c0.301,0.4,0.483,0.817,0.551,1.25c0.133,0.434,0.133,0.867,0,1.301
		c-0.233,0.899-0.817,1.55-1.75,1.949c-0.967,0.4-2.017,0.45-3.15,0.15c-0.366-0.1-0.7-0.217-1-0.35l1.4-0.5v-2.7L324.25,231.3z
		 M292,200.35l2.65-6.85c1.933-1.8,3.033-3.567,3.3-5.3c-0.267,1.733-1.367,3.5-3.3,5.3L292,200.35z M145.55,212.95
		c0.833,0.566,1.25,1.316,1.25,2.25c0,0.399-0.083,0.767-0.25,1.1l-7.9,0.75c-0.233-0.366-0.35-0.783-0.35-1.25
		c0-0.899,0.417-1.717,1.25-2.45c0.833-0.699,1.833-1.083,3-1.149C143.717,212.1,144.717,212.35,145.55,212.95z M103.9,237.05
		c1.167,7.733,2.883,16.283,5.15,25.65l-5.2,3.45c-1.934,2.666-3.55,5.466-4.85,8.399c0.367,0.167,0.7,0.367,1,0.601
		c1.4,0.966,2.1,2.133,2.1,3.5c0,1.333-0.7,2.483-2.1,3.449c-1.133,0.834-2.467,1.301-4,1.4c-0.467,2-0.783,4.033-0.95,6.1
		c0.167-2.066,0.483-4.1,0.95-6.1c1.533-0.1,2.867-0.566,4-1.4c1.4-0.966,2.1-2.116,2.1-3.449c0-1.367-0.7-2.534-2.1-3.5
		c-0.3-0.233-0.633-0.434-1-0.601c1.3-2.934,2.917-5.733,4.85-8.399l5.2-3.45C106.783,253.333,105.067,244.783,103.9,237.05z
		 M117.15,258.55c-1.433-5.2-2.433-10.133-3-14.8l0.7,0.4l-0.7-0.4C114.717,248.417,115.717,253.35,117.15,258.55z M114.15,227.1
		c0.434-2.866,1.083-5.6,1.95-8.199C115.233,221.5,114.583,224.233,114.15,227.1z M96.5,246.45l7.9,14.1l-9.6,7.75v5.4
		c0.067,0,0.15,0,0.25,0c1.467,0,2.784,0.283,3.95,0.85c-1.167-0.566-2.483-0.85-3.95-0.85c-0.1,0-0.183,0-0.25,0v-5.4l9.6-7.75
		L96.5,246.45z M96,283.5c-0.3,0.033-0.617,0.05-0.95,0.05c-1.966,0-3.633-0.483-5-1.45c-1.367-0.966-2.05-2.116-2.05-3.449
		c0-1.367,0.683-2.534,2.05-3.5c1.3-0.934,2.883-1.417,4.75-1.45c-1.867,0.033-3.45,0.517-4.75,1.45
		c-1.367,0.966-2.05,2.133-2.05,3.5c0,1.333,0.683,2.483,2.05,3.449c1.367,0.967,3.034,1.45,5,1.45
		C95.383,283.55,95.7,283.533,96,283.5z M95.05,289.6c-8.3,1.267-14.683-0.8-19.15-6.199L94.8,268.3
		c-2-6.733-1.433-14.017,1.7-21.85c-3.133,7.833-3.7,15.116-1.7,21.85L75.9,283.4C80.367,288.8,86.75,290.866,95.05,289.6z
		 M314.5,216.05l-12.6-0.7l-4.15-3.399l4.15,3.399L314.5,216.05z M294.3,218.45l-2.1-3.351L294.3,218.45z M252.65,211.95
		l-10.35,0.399l-2-3.6l1.15-1.4l1.15,2.551l10.2,0.85L252.65,211.95z M193.45,213.15l6.35-0.5l2.9-0.2l8.55-0.65l3-0.2l1.15,2.051
		l-2.5,2.25h-16.45L193.45,213.15z M214.15,229.4h9V226.6l5.85,0.25l-0.45,1.051c1.034,1.633,0.067,3.283-2.9,4.949l-11.5,1.2
		C213.283,232.15,213.283,230.6,214.15,229.4z"/>
	
		<path fill-rule="evenodd" clip-rule="evenodd" fill="none" stroke="#000000" stroke-linecap="round" stroke-linejoin="round" stroke-miterlimit="3" d="
		M395.95,114.2l0.399-8.35l0.9-5.25l4.6-6.1l4.65-8.4c9.833-6.667,22.35-13.35,37.55-20.05l13.65,0.55l9,8.7l6.2,16.9l1.399,3.75
		v7.9l9.101,8.55c1.6,12.033,3.066,25.333,4.399,39.9c2.733,29.067,4.267,53.417,4.601,73.05c0.366,23.467-3.684,42.134-12.15,56
		c-2.634,4.334-5.566,7.934-8.8,10.801l-4.05,3c-5.867,4.866-14.4,7.783-25.601,8.75l-25.2-7.2
		c-3.899-1.134-8.483-4.75-13.75-10.851l-1.5-4.5L383.1,237l-9.3-4.1l-6.45,1.199l-5.55-2l-1.05,5.75l-1.5,3.15l-4.35-0.15
		L350.6,240.7l-3,1.399c-6.267,0.067-12.433,0.217-18.5,0.45l-4.949-5.05c-2.7,0.6-3.617,2.366-2.75,5.3c-1,0.033-2,0.084-3,0.15
		c-1.167,0.033-2.334,0.083-3.5,0.149c-0.967,0.034-1.934,0.084-2.9,0.15c-1.167,0.033-2.316,0.083-3.45,0.15
		c-12.133,0.633-23.967,1.5-35.5,2.6l-10.75,2.45l-0.45-3.05l-7.15-0.15l-1.05,3.2l-4.7-2.15l-1.5-0.899l-12,0.449l-2.35,0.101
		l-6.25,0.2l-1.35,1.699l-43.75,2.351l-2,2.3c-0.567,0.033-1.133,0.066-1.7,0.1l-2.55,0.15c-12.667,0.866-26.867,3.267-42.6,7.2
		l-2-5.05l-13.75,3.649L116.4,261l-2.45,0.75v2.55l-9.8,16.65c-2.3,3.3-5.333,6.184-9.1,8.649L94.9,291.7
		c-6.267,1.333-12.566,1.333-18.9,0l-3.75-6.15l-0.5-4.6H62.8c-0.767-2.101-1.5-4.033-2.2-5.8c-2.4-6.301-4.5-10.7-6.3-13.2
		l-2.35-2.3l-0.45-5.15c-1.667-2-3.483-4.833-5.45-8.5c-1.033-1.833-2.1-3.9-3.2-6.2v-8.35v-2.7c-0.133-9.134,1.133-14.467,3.8-16
		l-1.85-8l2.8-5.25v-13.75l2.95-2.7l2.9-2.75l5.85-5.4l7.15-4.1l3.65,0.65l3.45,2.15l21.1,4.85l1.4,0.35l4.8,10.25l4.75,10.1
		l2.35,1.5l9.5-2.2l5.2-2.75l2.9,4.45l19.6-2.55c0.6,2,1.567,3.617,2.9,4.85l7.3-0.101l1.3,2.2l25.3-2.5
		c0.833,0.101,1.566,0.334,2.2,0.7l1.8-1.05c0.5-1.601,5.917-2.35,16.25-2.25c1.566,0.033,3.233,0.083,5,0.15
		c2.167,1.333,4.333,1.333,6.5,0v-3.9l37.35-2.4l3.05-1.75h2.85H266l1.3,1l1.3,1l1.15-1.45l1.2-1.4c9.833-1,14.816-2.017,14.95-3.05
		c0.566,0.434,1.199,0.717,1.899,0.85c1.2,0.3,2.566,0.2,4.101-0.3c0.433-0.167,0.883-0.35,1.35-0.55h5.4l3-0.85l3.399,0.25
		c0.066-0.3,0.134-0.6,0.2-0.9 M407.9,97.75c-0.134,0.9-0.483,1.683-1.051,2.35c-0.5,0.633-1.066,0.95-1.699,0.95
		c-0.567,0-0.95-0.316-1.15-0.95c-0.2-0.667-0.1-1.45,0.3-2.35c0.4-0.9,0.65-1.683,0.75-2.35c0.101-0.633,0.45-0.95,1.05-0.95
		c0.601,0,1.067,0.316,1.4,0.95C407.866,96.067,408,96.85,407.9,97.75z M474.3,103.85l-5.1-5.15l3.7-6.5 M395.75,131.15
		c-1.366-3-0.2-7.75,3.5-14.25l-3.3-2.7l-0.45,8.2l-7.9,19.8l-4.899,2.35l-1.25,7l-0.5,8c0.6-1.5,1.283-2.966,2.05-4.4l6.15-7.3
		L395.75,131.15l3.65-9.3c2.566-7.767,5.416-12.717,8.55-14.85l-4.25,15l-0.9,25.45l2.4,5.9l-1.7,2.65l0.9,5.1l18.199-6.25
		c0.067-1.3,0.233-2.633,0.5-4l2.101-4.55c-4.634-12.533-6.4-23.75-5.3-33.65c-2.567-4.533-5.334-6.8-8.301-6.8
		c-1.267,0-2.483,0.383-3.649,1.15 M362.3,177.3c-0.967-2.066-1.1-3.5-0.399-4.3c-0.2-0.1-0.4-0.217-0.601-0.35
		c-1.399-0.867-2.899-1.7-4.5-2.5l-6.899,0.7l-2.15-0.7l-6.95,0.9l-3.2,1.7L336,179l-3.85,0.5l-3.75,1.55l-2.75,10.6l3.5,2.15
		c-1.034-5.333,0.583-8.867,4.85-10.6c0.566-0.267,1.184-0.483,1.85-0.65l0.45-1.6l11.65-0.7c-0.867-1.267,2.149-2.25,9.05-2.95
		l-10.45,0.5l2.2-4.85l7.7-1.25l2.649,3.6c0.5,0.267,1,0.55,1.5,0.85C361.167,176.517,361.733,176.9,362.3,177.3
		c7.5,5.2,11,11.717,10.5,19.55l-11.649,6.2l2.1,10.101l-2.5,3.149 M356.8,170.15l4.101,0.45l5.199,2.15h3.051l3.55-2.25l3.05-11.2
		l5.7-7.75 M343.75,177.95l2.3-4.95l-5.75,1.15l-2.399,4.05L343.75,177.95z M328.4,181.05l0.75-2.85 M326.55,198.1l-1.649-2.85
		l-4.45-0.85l-0.15-3.75l7.101-9.2l1-0.4 M335.85,189c0.5,0.267,0.7,0.883,0.601,1.85c-0.066,1.033-0.417,2.1-1.05,3.2
		c-0.634,1.1-1.351,1.917-2.15,2.45c-0.167,0.133-0.333,0.25-0.5,0.35c-0.6,0.3-1.1,0.35-1.5,0.15c-0.467-0.3-0.65-0.95-0.55-1.95
		c0.1-0.966,0.467-2,1.1-3.1c0.134-0.2,0.25-0.383,0.351-0.55c-1.867-3.066-0.634-6.017,3.699-8.85 M332.15,191.4
		c0.566-0.833,1.149-1.5,1.75-2c0.833-0.566,1.483-0.7,1.949-0.4c1.367-1.3,2.117-0.5,2.25,2.4c-1.166,3.9-3.017,6.15-5.55,6.75
		c-0.934,0.767-1.116,1.95-0.55,3.55l-2.55,3.35 M329.15,193.8v0.05c0.466,2.267,1.416,4.883,2.85,7.85 M347.95,180.25l11.5-0.75
		c-0.267-0.933-0.267-1.7,0-2.3c0.2-0.467,0.583-0.817,1.149-1.05 M359.1,175.3c-0.533,0.767-1.233,1.434-2.1,2 M305.05,187.05h0.05
		l3.9-4.6v-4.5l11.25-4.55l7.15-1.3l1.1,1.95l9.1-1.3 M400.6,167.15l-2.699-2.6l-6.5,3.45l-9.9,7.45l-3.95-3.05
		c-0.2,1.2-0.316,2.4-0.35,3.6l3.35,3.4 M397.9,164.55l6.5-3.45 M406.05,170.95l-1.149-6.8l-4.301,3l-9.55,6.7
		c-1.434,0-3.6,2.25-6.5,6.75c0,3.467,0.834,5.717,2.5,6.75l3.55,5.75c1.134,2.9,1.617,5.667,1.45,8.3v0.149
		c-0.166,2.566-0.017,4.667,0.45,6.3c2.934-5.899,7.066-9.383,12.4-10.45l2-7.3c-1.634-2.7-2.034-7.2-1.2-13.5
		c-0.066-0.133-0.15-0.283-0.25-0.45c-0.233-0.6-0.351-1.316-0.351-2.15c0-0.867,0.117-1.6,0.351-2.2
		C405.616,171.367,405.816,171.083,406.05,170.95c0.101-0.034,0.2-0.05,0.3-0.05c0.334,0,0.634,0.3,0.9,0.9
		c0.233,0.6,0.35,1.333,0.35,2.2c0,0.833-0.116,1.55-0.35,2.15c-0.267,0.6-0.566,0.9-0.9,0.9c-0.233,0-0.449-0.15-0.649-0.45
		 M380.95,159.55c-1.733,4.167-2.867,8.45-3.4,12.85 M399.25,180.55c0,1.267-0.167,2.333-0.5,3.2s-0.733,1.3-1.2,1.3
		s-0.85-0.433-1.149-1.3c-0.334-0.867-0.5-1.933-0.5-3.2c0-1.267,0.166-2.35,0.5-3.25c0.3-0.867,0.683-1.3,1.149-1.3
		s0.867,0.433,1.2,1.3C399.083,178.2,399.25,179.283,399.25,180.55z M361.9,173c9.199,6.033,12.833,13.983,10.899,23.85
		c-2.133,6-5.316,11.433-9.55,16.3l0.95,4.699l7.149,2.101l4.051-2.9l17.949-0.95c0.101-0.1,0.217-0.183,0.351-0.25
		c1.1-0.733,2.434-1.1,4-1.1s2.899,0.366,4,1.1c0.133,0.101,0.267,0.2,0.399,0.301l7.051,0.1l19.55-0.9l2.25-3.25l-4.4-1.25
		l-5.7,0.95H395.7l-6.25,0.15v-3.3l1.399-2.351c0.634-1.533,1.034-3.116,1.2-4.75 M419.9,112.65c2.366,4.233,4.533,10.45,6.5,18.65
		c1.399,5.767,2.566,11.934,3.5,18.5l4.3-6.55l2.149,4.6l-5.649,8.05c0.566,5.067,1.017,10.367,1.35,15.9
		c0.033,0.9,0.066,1.784,0.101,2.65c0,0.325,0.008,0.642,0.024,0.95l0.025,0.3c0.166,1.533,0.434,2.883,0.8,4.05
		c0.733,2.533,1.917,4.2,3.55,5c0.566-0.2,1.717-0.233,3.45-0.1c1.7,0.067,3.366,1.167,5,3.3c1.634,2.066,2.2,4.466,1.7,7.2
		c-0.5,2.767-1.816,5.017-3.95,6.75c-2.167,1.699-4.066,2.699-5.7,3c-1.666,0.3-2.666,0.466-3,0.5c-0.3,0.033-0.85-0.15-1.649-0.551
		c-0.067,2.134-0.101,3.801-0.101,5h12h12.05l-1,3.95l-20.6,1.2l-2.85,0.2c-0.301,4.899-0.7,9.633-1.2,14.2
		c-1.033,8.966-3.834,19.083-8.4,30.35c-1.7,4.167-3.399,7.634-5.1,10.4c-1.033,1.733-2.084,3.166-3.15,4.3
		c-1.033,2.467-2.483,4.483-4.35,6.05c-1.967,1.2-3.934,1.7-5.9,1.5l-18.05-44.35l2.7,0.6c-5.5-4.333-6.517-8.65-3.05-12.95
		l-3.301,0.3c-0.866,1.634-1.949,3.034-3.25,4.2l4.25,7.2 M429.45,156.2l1.25-0.3l-4.45-3.6l-3.65,2.55 M429.9,149.8l-3.65,2.5
		 M429.45,169.55c-1.733-1.533-3.134-3.15-4.2-4.85c-1.366-2.2-2.2-4.517-2.5-6.95l-12.85,3.75l-5,2.65 M425.25,164.7l4.2,4.85
		V156.2l-6.7,1.55 M406.05,170.95l0.05,0.3 M413.6,203.85c-1.866-4.899-1-8.966,2.601-12.2c3.633-3.3,3.684-6.316,0.149-9.05
		c-2.5-3.4-1.866-6.8,1.9-10.2 M439.95,200.25c-1.066-0.066-1.983-0.65-2.75-1.75c-0.834-1.133-1.25-2.5-1.25-4.1
		c0-1.633,0.416-3.017,1.25-4.15c0.8-1.167,1.783-1.75,2.95-1.75c1.166,0,2.149,0.583,2.949,1.75c0.834,1.133,1.25,2.517,1.25,4.15
		c0,1.6-0.416,2.967-1.25,4.1c-0.8,1.167-1.783,1.75-2.949,1.75C440.083,200.25,440.017,200.25,439.95,200.25l-2.3,1.7
		c-1.867,1.399-3.417,0.95-4.65-1.351v-20.85 M432.175,175.4c-0.083-1.117-0.125-2.317-0.125-3.6 M432.4,204.85l-2.95-3.699V169.55
		 M417.4,243.85l2.8,1.101c3.566-3.5,6.733-10.584,9.5-21.25c0.267-1,0.517-2.033,0.75-3.101c0.434-1.733,0.85-3.533,1.25-5.399
		l-3,0.149 M431.9,215.2h-0.2 M434.75,215l9.55-5.15 M426.55,210.85l5.75-1 M414.65,242.8l2.75,1.05 M409.15,216.25
		c2.699,2,3.199,4.434,1.5,7.3c-3.101,4.033-2.434,7.233,2,9.601c4.166,1.3,4.833,4.517,2,9.649L398.2,236.4l-5.101-1.95
		c-2.633-1.4-3.966-3.05-4-4.95c-1.199-3.833-0.3-6.1,2.7-6.8c-0.033-0.667-0.083-1.316-0.149-1.95l-6.25,4.55 M419,260.95
		c-0.333,2.633-0.934,5.7-1.8,9.2 M416.05,249.4c0.7,0.333,1.283,0.816,1.75,1.449l-0.399-7 M419,260.95
		c-4.467,0-5.45-3.851-2.95-11.55c-2.633-2.667-6.083-5.051-10.35-7.15l-8.601-2l-8.649-2l11.95,31.15
		c0.199,0.6,0.883,2.316,2.05,5.149c1.2,2.8,3.2,3.783,6,2.95c2.833-0.9,4.7-1.917,5.6-3.05c-4.6,1.5-5.316-1.783-2.149-9.851
		 M417.8,250.85c1.334,1.934,1.733,5.301,1.2,10.101 M437.7,288.55l7.649,1.601c-0.1,0.366-0.383,0.699-0.85,1
		c-0.566,0.366-1.267,0.55-2.1,0.55c-0.801,0-1.5-0.184-2.101-0.55c-0.566-0.367-0.85-0.801-0.85-1.301
		C439.45,289.616,438.866,289.184,437.7,288.55l-2.9-0.7 M364.5,223.05l27.15-2.3c0.267-0.3,0.466-0.667,0.6-1.1
		c0.267,0.6,0.75,1.149,1.45,1.649c1.1,0.733,2.434,1.101,4,1.101s2.899-0.367,4-1.101c1.1-0.767,1.649-1.684,1.649-2.75
		c0-0.934-0.416-1.733-1.25-2.399 M392.5,207.85c0.566,2.167,1.634,3.483,3.2,3.95 M376.9,206.9c0.5-0.467,1.083-0.7,1.75-0.7
		c0.666,0,1.233,0.233,1.699,0.7c0.5,0.5,0.75,1.083,0.75,1.75c0,0.666-0.25,1.233-0.75,1.699c-0.466,0.5-1.033,0.75-1.699,0.75
		c-0.667,0-1.25-0.25-1.75-0.75c-0.467-0.466-0.7-1.033-0.7-1.699C376.2,207.983,376.434,207.4,376.9,206.9z M378.15,205.65
		c0.933,0,1.75,0.35,2.449,1.05c0.7,0.7,1.051,1.533,1.051,2.5s-0.351,1.783-1.051,2.45c-0.699,0.699-1.517,1.05-2.449,1.05
		c-0.967,0-1.801-0.351-2.5-1.05c-0.7-0.667-1.051-1.483-1.051-2.45s0.351-1.8,1.051-2.5C376.35,206,377.184,205.65,378.15,205.65z
		 M378.85,229.8c-1.433,1.3-3.116,2.334-5.05,3.101 M365.05,227l17.05-1.4 M364.5,223.05l0.55,3.95l-3.25,5.1 M399.35,231.8
		c0.301-0.2,0.65-0.3,1.051-0.3c0.433,0,0.8,0.1,1.1,0.3c0.3,0.267,0.45,0.55,0.45,0.851c0,0.333-0.15,0.616-0.45,0.85
		s-0.667,0.35-1.1,0.35c-0.4,0-0.75-0.116-1.051-0.35c-0.3-0.233-0.449-0.517-0.449-0.85C398.9,232.35,399.05,232.066,399.35,231.8z
		 M397.1,240.25c6.434,0.934,6.801-0.35,1.101-3.85 M340.55,226.75c-0.066-0.366-0.1-0.733-0.1-1.1c0-1.434,0.5-2.65,1.5-3.65
		c1.033-1.033,2.267-1.55,3.7-1.55c1.433,0,2.649,0.517,3.649,1.55c0.967,0.967,1.467,2.116,1.5,3.45
		c1.8-0.267,3.584-0.533,5.351-0.8c1.666-0.301,3.333-0.617,5-0.95c1.133-0.2,2.25-0.417,3.35-0.65 M326.5,201.65l-0.1,3.55
		l2.949,5.35l3.851-0.3l0.6,3.1l16.3-0.55v3.05l-19.449,2.101l-0.101,0.149l-0.35-0.05l-13.25,1.4l-8.3,0.95
		c5.1,1.3,7.75,3.833,7.949,7.6c1.434-0.033,2.884-0.05,4.351-0.05c0.733-0.033,1.467-0.05,2.2-0.05
		c2.966-0.101,5.949-0.25,8.949-0.45c2.801-0.2,5.617-0.434,8.45-0.7 M314.5,216.05l2.95-5.35c0.934-1.9,3.95-4.917,9.05-9.05
		l0.05-3.55 M329.15,193.85l-0.95,4.5l-1.65-0.25 M330.2,218.05l-5.95-1l-5.9-1l3-5.35c0.7-1.5,2.384-3.334,5.051-5.5
		 M330.65,217.95l3.149-4.601 M324.25,217.05l5.1-6.5 M330.2,218.05l0.45-0.1 M332.1,227.45c0.867,0.5,1.601,1.149,2.2,1.95
		c0.8,1,1.2,2.033,1.2,3.1c0.434,0.967-0.1,2.4-1.6,4.3l5.35,0.95l2.65-8.45c-0.733-0.733-1.184-1.583-1.351-2.55 M342.7,225.6
		c0.1-0.699,0.399-1.3,0.899-1.8c0.601-0.633,1.334-0.95,2.2-0.95c0.9,0,1.65,0.317,2.25,0.95c0.3,0.3,0.533,0.634,0.7,1
		c0.134,0.367,0.2,0.767,0.2,1.2c0,0.866-0.3,1.616-0.9,2.25c-0.6,0.634-1.35,0.95-2.25,0.95c-0.866,0-1.6-0.316-2.2-0.95
		c-0.633-0.634-0.949-1.384-0.949-2.25C342.65,225.866,342.667,225.733,342.7,225.6z M350.8,225.45c0,0.066,0,0.133,0,0.2
		c0,1.466-0.5,2.699-1.5,3.699s-2.217,1.5-3.649,1.5c-1.434,0-2.667-0.5-3.7-1.5l-0.05-0.05 M335.5,232.5
		c-0.033,0.366-0.1,0.75-0.2,1.15c-0.366,1.433-1.35,2.483-2.95,3.149c-1.6,0.7-3.333,0.8-5.199,0.3
		c-1.233-0.333-2.284-0.866-3.15-1.6l-4.5,1.5c-9.866-1.2-17.017,0.35-21.45,4.65H258.1c-4.033-2.267-8.05-2.65-12.05-1.15l1.4,4.9
		 M326.5,234.65l1.4-0.5v-2.7l-3.65-0.15l-3.05-0.1l-0.25-3.25 M324.25,231.3c0-0.166,0.017-0.35,0.05-0.55
		c0.233-0.866,0.816-1.517,1.75-1.95c1-0.366,2.05-0.399,3.15-0.1c1.133,0.3,2.017,0.85,2.649,1.649
		c0.301,0.4,0.483,0.817,0.551,1.25c0.133,0.434,0.133,0.867,0,1.301c-0.233,0.899-0.817,1.55-1.75,1.949
		c-0.967,0.4-2.017,0.45-3.15,0.15c-0.366-0.1-0.7-0.217-1-0.35l-2.5,0.85 M329.1,242.55l4.801-5.75 M354.9,240.85
		c4.533-5.1,6.616-10.816,6.25-17.149 M356.15,224.65c1.433,5.333-0.417,10.683-5.551,16.05 M251.05,193.3v2.3l-6.4,6v1.9l5.4-0.35
		l19.25-2.7l-4.6,5.3c-3.2-1.733-6.784-1.684-10.75,0.15c4.767-0.4,7.517,0.133,8.25,1.6l-2.25,5.1l1.75-0.149
		c1.5-4.167,3.316-5.834,5.45-5c0.434,0.399,0.867,0.833,1.3,1.3c0.367-0.833,0.75-1.616,1.15-2.35
		c-0.167-2.934,0.75-5.301,2.75-7.101c-1.8-2.1-2.667-4.5-2.6-7.2 M270.95,190.7c0.367,1.633,0.983,2.933,1.85,3.9l2.7-0.35l0.3,2.2
		c0.566,0.167,1.184,0.25,1.851,0.25c2.133-0.267,3.949-0.85,5.449-1.75c1.067-0.633,1.967-1.417,2.7-2.35l-0.399-2.1
		c-0.2-1,0.517-1.367,2.149-1.1c0.101-0.3,0.184-0.6,0.25-0.9 M272.8,194.6c0.8,0.9,1.8,1.517,3,1.85 M287.55,189.4
		c-0.467,1.233-1.05,2.3-1.75,3.2 M286.15,199.65l2.449-6.15c1.9-1.8,3-3.567,3.301-5.3 M292,200.35l2.65-6.85
		c1.933-1.8,3.033-3.567,3.3-5.3 M299.75,197.1l2.2-5.65c1.6-1.467,2.633-2.934,3.1-4.4 M299.75,197.1l-5.6,0.2v3.3l-2.15-0.25
		l-5.85-0.7l-2.95-0.35c-6.167-0.7-10.7,1.667-13.6,7.101 M272.75,216.8h0.05l19.4-1.7l1-2.1l4.55-1.05l19.75-4.65l7.45-6.95
		l-2.65-4.05l-4.1,0.15l-18.45,0.65 M318.2,196.45l0.149-5.8l7.15-9.2l-1.65-0.7l4.65-6.7 M50.55,183.05l1.45,5.7l1.5-3.6
		c-0.033-1.6-0.05-3.217-0.05-4.85 M47.6,199.5l2.95-7.15l1.45-3.6 M69.1,177.3c13.1,1.633,19.617,3.434,19.55,5.4
		c-0.066,1.966-0.483,3.9-1.25,5.8l-8.5,3.85H62.05l-3.75-3.45l5.05-8.3L69.1,177.3z M66.45,170.8L53.5,185.15
		c0.067,11.567,0.383,22.183,0.95,31.85H65c2.7-1.4,8.667-2.167,17.9-2.3 M148.05,202.45c1.333,1.2,3.034,2.05,5.1,2.55l3.5-0.45
		 M145.55,212.95c0.833,0.566,1.25,1.316,1.25,2.25c0,0.399-0.083,0.767-0.25,1.1l-7.9,0.75c-0.233-0.366-0.35-0.783-0.35-1.25
		c0-0.899,0.417-1.717,1.25-2.45c0.833-0.699,1.833-1.083,3-1.149C143.717,212.1,144.717,212.35,145.55,212.95z M130.15,217.85
		l5.5-0.5c-0.133-0.399-0.2-0.816-0.2-1.25c0-1.533,0.683-2.916,2.05-4.149c1.4-1.167,3.083-1.816,5.05-1.95
		c1.934-0.134,3.6,0.267,5,1.2c1.367,0.967,2.05,2.217,2.05,3.75c0,0.366-0.033,0.717-0.1,1.05l17.25-1.6
		c0.733-1.467,1.867-2.817,3.4-4.051s2.684-1,3.45,0.7l5.1-0.5c1.267,0.267,1.9,1.117,1.9,2.55l3.05-0.3
		c-0.133-2.1,0.917-4.217,3.15-6.35l-28.45,3.399 M125.55,200.15l2.85,5.449l3.05,0.051l16.6-3.2 M112.15,215.4l10.65-1.301v-0.05
		c0-0.5,0.167-0.916,0.5-1.25c0.367-0.366,0.8-0.55,1.3-0.55c0.467,0,0.883,0.184,1.25,0.55c0.267,0.267,0.417,0.566,0.45,0.9
		l4.8-0.601 M126.3,213.7c0.034,0.1,0.05,0.217,0.05,0.35c0,0.5-0.167,0.917-0.5,1.25c-0.367,0.334-0.783,0.5-1.25,0.5
		c-0.5,0-0.934-0.166-1.3-0.5c-0.3-0.333-0.466-0.733-0.5-1.2 M130.15,217.85l0.75,2.4l1.05-0.1L130.15,217.85L116.1,218.9
		l-3.95-3.5l-3.95-3.601c-0.4,3.233-0.633,6.517-0.7,9.851l3,4.25c0.067-1.301,0.183-2.551,0.35-3.75
		c0.3-2.434,0.733-4.684,1.3-6.75 M187.05,213.65l-3.2,0.199c0.267,3.134-0.867,6.017-3.4,8.65l-2.85-4.95l-28,4.05l-16.4,0.101
		l-1.25-1.55h4.85l47.05-6.301c-0.1-0.366-0.167-0.716-0.2-1.05 M131.45,205.65l8.55,0.1 M133.45,242.25l1.45-3.95l-17.9,2.8
		c-0.567,1.134-1.283,2.15-2.15,3.051l16.75-1.75L133.45,242.25l16.15-1.65 M167.8,238.75l-2.75-3.1L149.6,237.1v3.5L167.8,238.75
		c1.934,1.833,3.117,1.717,3.55-0.35l0.05-4.351 M130.9,220.25l1.85,5.7L169.7,224l103.05-7.2 M102.1,213.2l3.95,0.05
		c-0.033-1.033-0.017-2.066,0.05-3.1l-3.8-0.65C102.2,210.7,102.133,211.934,102.1,213.2z M102.3,209.5
		c0.133-2.4,0.383-4.65,0.75-6.75l-2.2-13.7 M106.1,210.15c0.066-1.634,0.217-3.25,0.45-4.851l-3.5-2.55 M103.9,237.05
		c-1.167-7.866-1.767-14.883-1.8-21.05c-0.033-0.967-0.033-1.9,0-2.8 M108.2,211.8l-1.65-6.5l21.85,0.3 M91.4,222.25L83.15,200
		l11.5-21.55 M91.4,222.25l3.5-2.45 M91.4,222.25l-1.3,0.9l1.45,11.8L93,246.7l1.7-3.45l1.8,3.2l7.4-9.4l-2.15-1.7l-7.7-6
		L91.4,222.25z M90.1,223.15L87.4,225l-7.25-5c-9.433,0.434-16.517,1.934-21.25,4.5l-4.15-2.15c0.733,11.267,1.8,21.15,3.2,29.65
		l4.25,12.7l-0.5,4.55l4.45,5.2l3.5-0.45l3.9,2.25l1.75-2.85V252.85l16.25-17.899 M108.65,240.75c-0.667-4.6-1.05-9.083-1.15-13.45
		c0-0.267,0-0.5,0-0.7c-0.967-4.6-1.45-9.05-1.45-13.35 M110.5,236.5c0.067,1.767,0.2,3.6,0.4,5.5l3.25,1.75
		c-0.3-2.333-0.467-4.616-0.5-6.85L110.5,236.5z M113.95,264.3c-2.467-8.1-4.233-15.95-5.3-23.55l-4.75-3.7
		c1.167,7.733,2.883,16.283,5.15,25.65l-5.2,3.45c-1.934,2.666-3.55,5.466-4.85,8.399c0.367,0.167,0.7,0.367,1,0.601
		c1.4,0.966,2.1,2.133,2.1,3.5c0,1.333-0.7,2.483-2.1,3.449c-1.133,0.834-2.467,1.301-4,1.4c-0.467,2-0.783,4.033-0.95,6.1
		c-8.3,1.267-14.683-0.8-19.15-6.199L94.8,268.3c-2-6.733-1.433-14.017,1.7-21.85l7.9,14.1l-9.6,7.75v5.4c0.067,0,0.15,0,0.25,0
		c1.467,0,2.784,0.283,3.95,0.85 M117,241.1c0.733-1.533,1.183-3.25,1.35-5.149c-2.3-0.4-3.7-3.351-4.2-8.851
		c-0.433,3.101-0.6,6.367-0.5,9.801 M114.15,243.75l0.7,0.4 M110.5,225.9c-0.233,3.233-0.233,6.767,0,10.6 M101.75,235.35
		c-2.033-7.733-2.417-16.633-1.15-26.699l-5.95-30.2 M110.85,222.15l3.3,4.949c0.434-2.866,1.083-5.6,1.95-8.199 M107.5,221.65
		c-0.067,1.633-0.067,3.283,0,4.949 M96.35,214.4l-2.3,14.949 M96,283.5c-0.3,0.033-0.617,0.05-0.95,0.05
		c-1.966,0-3.633-0.483-5-1.45c-1.367-0.966-2.05-2.116-2.05-3.449c0-1.367,0.683-2.534,2.05-3.5c1.3-0.934,2.883-1.417,4.75-1.45
		 M110.9,242c0.567,5.967,1.583,12.55,3.05,19.75 M117.15,258.55c-1.433-5.2-2.433-10.133-3-14.8 M229.5,241.7l-101.4,8.2l3.5-7.5
		 M47.45,203.5c0.066-1.333,0.117-2.667,0.15-4 M54.3,261.95c-1.6-23.834-3.767-42.783-6.5-56.851c-0.133-0.533-0.25-1.066-0.35-1.6
		c-0.133,5.467-0.1,10.917,0.1,16.35c0.2,5.667,0.633,11.317,1.3,16.95c0.167,1.533,0.35,3.066,0.55,4.601
		c0.567,4.366,1.267,8.733,2.1,13.1 M54.75,222.35v-0.05c-0.967,0.8-2.167,0.5-3.6-0.899c-0.933-1.101-0.683-2.301,0.75-3.601
		 M54.75,222.3c-0.1-1.733-0.2-3.5-0.3-5.3 M42.85,231.45l3,2.7l3,2.649 M46.05,246l3.35-4.6 M59.2,235.65
		c0.066-0.733,0.517-1.4,1.35-2c0.8-0.634,1.75-1.017,2.85-1.15c1.133-0.167,2.067-0.05,2.8,0.35c0.733,0.434,1.083,1,1.05,1.7
		c-0.067,0.733-0.5,1.4-1.3,2c-0.8,0.634-1.767,1.033-2.9,1.2c-1.066,0.134-1.983,0-2.75-0.4
		C59.533,236.95,59.167,236.384,59.2,235.65z M46.05,246l-0.2-11.85 M42.85,228.75l4.7-8.9 M66.15,274.45l5.6,6.5 M73.55,276.25
		l3.9,2.25L93,246.7 M60.6,275.15l5.55-0.7 M61.7,269.25l-7.4-7.3 M316.95,219.45l-1.45-2l-21.2,1l2.05,3.399l4-0.5l8.301-0.949
		 M315.5,217.45l-1-1.4l-12.6-0.7l-4.15-3.399 M294.3,218.45l-2.1-3.351 M244.15,227.85L243.8,231l37.15-2.35
		c-0.267,0.199-0.517,0.416-0.75,0.649c-1.2,1.167-1.8,2.566-1.8,4.2c0,1.667,0.6,3.083,1.8,4.25c1.233,1.167,2.7,1.75,4.399,1.75
		c0.167,0,0.351,0,0.551,0c-1.067-0.267-2.017-0.783-2.851-1.55c-1.267-1.167-1.899-2.584-1.899-4.25
		c0-1.667,0.633-3.084,1.899-4.25c0.434-0.367,0.9-0.684,1.4-0.95c0.767-0.4,1.633-0.65,2.6-0.75c0.434,0.1,0.851,0.267,1.25,0.5
		c0.5,0.267,0.983,0.616,1.45,1.05c1.233,1.167,1.85,2.566,1.85,4.2c0,1.667-0.616,3.083-1.85,4.25
		c-1.1,1.033-2.384,1.616-3.85,1.75c0.566,0.134,1.149,0.2,1.75,0.2c1.8,0,3.333-0.584,4.6-1.75c1.3-1.167,1.95-2.584,1.95-4.25
		c0-1.667-0.65-3.084-1.95-4.25c-0.667-0.566-1.4-1-2.2-1.3l11.05-0.7v-6.101 M308.55,243.4l1-4.7H313l-1,4.55 M314.9,243.1
		l1.1-4.699h3.45l-1.05,4.55 M316.6,228c-5.399,0-10.816-0.184-16.25-0.55 M252.65,226.9c6.333-1.467,9.967-3.084,10.9-4.851
		c4.534-1,7.6-2.75,9.2-5.25 M268.45,208.75c-0.367,1-0.717,2.083-1.05,3.25l-5.7,0.45 M253.95,205.9c-0.2,0.066-0.4,0.149-0.6,0.25
		l-0.55,4.6l-0.15,1.2l-0.15,1.2l7.45-0.551 M236.95,231.7l0.05,2.1l7.75,5.7l1.3,1l-3.25,4.75l-1.8-5.45l-2.4,0.15l-3.15,5.899
		 M252.65,226.9l-8.5,0.949 M296.35,221.85l-43.7,5.051 M232.45,205.05l4.25,3.601v1.699v1.15l5.9,2.45l9.9-0.8 M235.95,200.7
		c1.267-0.767,2.917-1.45,4.95-2.05 M252.8,210.75l-10.2-0.85l-1.15-2.551l-1.15,1.4l2,3.6l10.35-0.399 M220.9,203.1l2.2-0.25
		l0.15-2l0.1-1.95c-4.067,1.4-7.283,1.633-9.65,0.7 M210.55,207.9l12.95-1.7l7.3-0.9c0-1.899,0.284-3.416,0.85-4.55l-8.4,0.1
		 M230.8,205.3l1.65-0.25c0.233-1.7,1.4-3.149,3.5-4.35c-0.833-2.133-2.267-2.117-4.3,0.05 M210.55,207.9l-6.65,0.8 M202.7,212.45
		l8.55-0.65l-0.7-3.899 M211.25,211.8l3-0.2l1.15,2.051l2.45-2.301l4.85-0.399l0.8-4.75 M215.4,213.65l-2.5,2.25h-16.45l-3-2.75
		l-4.8,0.35l-1.6,0.15 M242.6,213.95l-24.75,1.85v-4.45 M202.7,212.45l1.2-7.4l-2.75,0.351l-1.35,7.25L202.7,212.45z M203.9,205.05
		l17-1.95h-26.65c-2.333-0.366-3.75,0.801-4.25,3.5h8.2l2.95-1.199 M214.15,229.4c-0.867,1.199-0.867,2.75,0,4.649l11.5-1.2
		c2.967-1.666,3.934-3.316,2.9-4.949l0.45-1.051l-5.85-0.25v2.801H214.15z M203.05,231.35l2.75-0.3 M171,225.8h33.85l0.6,1l0.55,1
		l4.8-0.45c0.867-0.166,1.35,0.517,1.45,2.051h1.9 M203.05,231.35v3.801l8.25-0.851c-0.733-2.6-0.667-4.217,0.2-4.85l0.75-0.05
		 M211.3,234.3l2.85-0.25 M235.45,231.85l1.5-0.149l6.85-0.7 M229.5,241.7l-2.65,4.45 M230.15,240.7l-0.65,1 M238.6,239.95
		l-8.45,0.75l2.95,5.25 M225.65,232.85l9.8-1l-5.3,8.851 M228.55,227.9l5.85-0.551l9.75,0.5 M222.7,210.95l14-0.601 M184.15,202.75
		c1.4,0.667,2.283,1.9,2.65,3.7l0.25,7.2 M193.45,213.15l6.35-0.5 M188.65,213.5l1.35-6.9 M180.6,213.1l-13.85,1.301 M171,225.8
		l-1.3-1.8 M167.9,231.35l1.95-3.399l1.15-2.15 M171.35,238.4l2.75-0.301c-0.267-2,0.917-3.533,3.55-4.6l25.4-2.15 M169.85,227.95
		l4.05,0.85l31.55-2 M174.1,238.1l28.95-2.949 M167.9,231.35l38.1-3.55 M244.75,239.5l-3.75,0.3 M244.65,203.5l-3.2,3.85
		 M267.3,192.55c1.333,4.567-3.883,6.8-15.65,6.7c-0.333-3.333,1.434-5.9,5.3-7.7 M118.35,235.95l49.55-4.601 M130.9,254.9
		c16.5-2.767,31.367-3.483,44.6-2.15 M108.2,211.8l75.95-9.05 M47.8,205.1c3-1.866,3.917-6.116,2.75-12.75 M283.1,194.95
		c1.367,1.267,1.4,2.716,0.101,4.35"/>
</g>
</svg>
