<?xml version="1.0" encoding="utf-8"?>
<!-- Generator: Adobe Illustrator 16.0.0, SVG Export Plug-In . SVG Version: 6.00 Build 0)  -->
<!DOCTYPE svg PUBLIC "-//W3C//DTD SVG 1.0//EN" "http://www.w3.org/TR/2001/REC-SVG-20010904/DTD/svg10.dtd">
<svg version="1.0" id="Layer_1" xmlns="http://www.w3.org/2000/svg" xmlns:xlink="http://www.w3.org/1999/xlink" x="0px" y="0px"
	 width="550px" height="400px" viewBox="0 0 550 400" enable-background="new 0 0 550 400" xml:space="preserve">
<g>
	<path fill-rule="evenodd" clip-rule="evenodd" fill="#FFFFFF" d="M401.34,154.461l1.895,16.972l3.449,1.585l14.611-2.829
		l5.502,1.709l0.559,1.803l-5.969-0.187l-8.92,3.947l-8.641-1.15l2.703,22.475l0.467,21.851l-4.26,3.606l-0.775,4.383l-8.332,0.808
		l-4.072,7.833l-5.189,6.776l-3.295-1.896l-7.553-2.362l-5.348,3.638l0.654,6.123l1.615,5.595l4.662,16.227l-7.211,10.039
		l-25.021,34.906l-15.014,18.246l0.124,1.119l0.155,1.12l-11.346,15.79l-3.916,1.088l-14.765,8.797l-8.175,8.517l-5.035,6.744
		l-5.969,3.638l-3.14,0.466l-6.9-0.466l-9.915-7.864l-2.363-3.761l-1.088-2.208l-6.434-12.899l-6.279-5.004
		c-1.513-0.27-3.077-1.078-4.693-2.424c-1.762-1.452-3.108-3.307-4.041-5.565c-0.788-1.885-1.285-4.051-1.492-6.496
		c-0.456-5.367-0.963-10.744-1.523-16.133l-0.684-6.464l-2.828-5.378l-0.342-13.987l-2.176-8.3l-6.932-5.999l-1.865,0.964
		l0.435-3.046c5.45-0.125,11.231-0.343,17.345-0.654c0.414-0.021,0.829-0.041,1.243-0.062c5.802-0.29,11.895-0.663,18.278-1.118
		l4.506-4.881c0.125-0.829,0.27-1.647,0.436-2.455c0.871-4.311,2.424-8.394,4.663-12.247c2.155,0.725,4.32,2.963,6.496,6.714
		c-2.176-3.751-4.341-5.989-6.496-6.714c1.679-2.86,3.729-5.596,6.153-8.207l1.586,2.736l-1.586-2.736
		c1.824-1.989,3.876-3.896,6.155-5.719l-17.469-0.591l-27.322-6.186l-6.901,0.436l-13.552,10.692l-16.878,5.222l-28.286-4.289
		l-1.181-7.118l-2.269-6.154l-2.3-10.258l15.231-22.442l-15.231,22.442l2.3,10.258l2.269,6.154
		c-6.942-4.496-12.392-4.082-16.35,1.243l-20.298-15.138l-4.476-9.231l0.466,19.489l5.471,5.75l-8.766,0.249l-5.502-5.036
		l-10.692-3.761l-14.143-21.229l5.315-17.345l-6.248-22.411l3.574-8.672l0.902-7.771l7.616-7.057l5.16-0.311l2.828-1.709
		l13.459-14.516l-2.611-0.87l5.501-5.129l-7.771-8.952c0.291-0.663,0.57-1.306,0.84-1.927l0.528-1.181l0.124-0.311l-2.393-2.549
		c1.554-5.719,4.569-11.864,9.045-18.433c6.983-10.278,15.676-17.894,26.08-22.846l1.212-1.958c2.342-1.243,4.88-1.482,7.616-0.715
		c0.228,0.083,1.544,1.544,3.947,4.383l5.315,4.911l35.56-26.576l16.815,6.559l-11.438-23.033l-0.311-5.377l7.771-8.051l3.294,0.591
		l1.492,6.87l12.558,26.296c2.238,0.622,3.927,0.321,5.066-0.901l2.083-3.885l8.393-4.166l7.459,5.968h3.295l6.248,9.263v4.787
		l-2.734,2.394l-2.705-1.523c-7.086-2.3-15.262-0.425-24.525,5.626c-4.103,2.673-8.413,6.155-12.93,10.444l-2.829-5.066
		l13.739-11.439c8.393-5.719,16.215-8.631,23.469-8.734l3.076,9.17l-3.076-9.17c-7.254,0.104-15.076,3.015-23.469,8.734
		l-13.739,11.439l2.829,5.066l-3.016,2.518v14.081c-1.347,0.788-2.797,1.958-4.352,3.513c-1.575,1.575-2.776,3.067-3.605,4.476
		c-0.829,1.409-1.036,2.321-0.622,2.735c0.041,0.042,0.104,0.083,0.187,0.125c-0.083-0.042-0.146-0.083-0.187-0.125
		c-0.415-0.414-0.208-1.326,0.622-2.735c0.829-1.409,2.031-2.901,3.605-4.476c1.554-1.554,3.005-2.725,4.352-3.513
		c0.042-0.042,0.083-0.073,0.125-0.093c1.181-0.684,2.009-0.943,2.487-0.777c0.103,0.042,0.186,0.094,0.248,0.156
		c0.394,0.394,0.176,1.295-0.653,2.704c-0.559,0.954-1.295,1.948-2.207,2.984c-0.435,0.498-0.901,0.995-1.398,1.493
		c-1.575,1.575-3.067,2.776-4.476,3.605c-1.243,0.726-2.083,0.984-2.518,0.777l-1.896,1.99l0.031,0.031
		c0.767,0.767,0.995,1.823,0.684,3.17c-0.104,0.498-0.27,0.974-0.498,1.43c0.228-0.457,0.394-0.933,0.498-1.43
		c0.311-1.347,0.083-2.403-0.684-3.17l-0.031-0.031l1.896-1.99c0.435,0.207,1.274-0.052,2.518-0.777
		c1.409-0.829,2.901-2.03,4.476-3.605c0.497-0.498,0.963-0.995,1.398-1.493c0.912-1.036,1.648-2.03,2.207-2.984
		c0.829-1.409,1.047-2.311,0.653-2.704c-0.062-0.062-0.145-0.114-0.248-0.156l1.896-2.02c12.081-8.724,26.887-17.076,44.418-25.053
		l0.311,0.155l-0.311-0.155c3.088-1.409,6.258-2.808,9.512-4.196l-4.135-1.71l1.182-5.968l-1.492-8.362l7.46-4.196l9.574-0.311
		l2.983,8.082l8.953-5.968l4.787,2.393l26.016-36.119l4.166-5.409h10.164l6.559,4.196l0.901,2.984l1.802,2.984l0.312,8.361
		l-6.559,12.558l-6.59,12.558l-0.622,8.051l1.772,0.839l5.034-7.771l4.478-0.715l1.988,1.026c-3.584,0.124-6.32,2.735-8.205,7.833
		l-3.295-0.373l10.443,12.651l8.578,8.952l1.4,3.761l-2.58,6.062l0.311,2.984l6.9,7.709l2.518-0.311l9.42-9.76l11.467-8.175
		l3.389-1.337c2.943-0.767,6.113-0.787,9.512-0.062c1.037-0.145,2.725,1.44,5.066,4.756c4.746,6.776,9.502,18.288,14.268,34.534
		c-0.207-0.125-0.527,0.29-0.963,1.244l-0.621,1.429l-12.777,11.066l-9.014,4.942l-5.377,4.569l-6.652-31.115
		c-3.791-4.829-9.697-8.859-17.717-12.092c8.02,3.233,13.926,7.263,17.717,12.092l6.652,31.115L401.34,154.461z M284.526,250.695
		c-4.165-1.927-7.19-5.004-9.076-9.231C277.336,245.691,280.361,248.769,284.526,250.695z M220.184,61.335l1.802-4.756l1.15,2.175
		l0.373,5.253l-0.373-5.253l-1.15-2.175L220.184,61.335z M210.672,69.137c1.721-3.709,4.891-6.311,9.512-7.802
		c0.642,1.243,1.75,2.134,3.326,2.673c1.222,0.415,2.715,0.622,4.476,0.622c7.564-3.875,11.708-7.761,12.433-11.656
		c-0.726,3.896-4.869,7.781-12.433,11.656c-1.761,0-3.254-0.207-4.476-0.622c-1.575-0.539-2.684-1.43-3.326-2.673
		C215.562,62.827,212.393,65.428,210.672,69.137z M215.895,71.997l5.19,2.829l1.088,1.989l-1.088-1.989L215.895,71.997z
		 M415.17,195.802l10.352-7.491l4.943-4.663l1.336,4.29l-0.623,5.813l-2.672,1.398L415.17,195.802z M280.424,66.339
		c-0.561,6.527,2.673,5.74,9.697-2.363l-0.155-2.921l2.487-4.041l-2.487,4.041l0.155,2.921
		C283.097,72.08,279.863,72.867,280.424,66.339z M295.996,53.875l-3.232,6.901c-0.933,1.161-1.812,2.228-2.643,3.201
		c0.83-0.974,1.71-2.041,2.643-3.201L295.996,53.875z M306.906,70.753h8.891l1.834,1.802l3.48-8.921l-3.418-0.746l-4.974,2.393
		l-3.046-1.212l-5.223,2.456L306.906,70.753l-2.455-4.228l5.223-2.456l3.046,1.212l4.974-2.393l3.418,0.746l-3.48,8.921
		l-1.834-1.802H306.906z M264.26,113.431l-6.869-11.967l21.852-24.929l8.206-2.362c3.503-5.16,8.569-8.755,15.2-10.786
		c1.036-0.311,2.113-0.591,3.232-0.839l3.793,1.522l-3.793-1.522c-1.119,0.248-2.196,0.528-3.232,0.839
		c-6.631,2.031-11.697,5.626-15.2,10.786l-8.206,2.362l-21.852,24.929L264.26,113.431z M339.141,27.422
		c0.518,0.104,1.025,0.218,1.523,0.342l3.822-5.688c2.279,0.891,3.875,2.704,4.787,5.44c-0.912-2.736-2.508-4.549-4.787-5.44
		l-3.822,5.688C340.166,27.64,339.658,27.526,339.141,27.422z M340.664,27.765c7.149,1.782,11.293,5.812,12.434,12.091
		C351.957,33.577,347.813,29.546,340.664,27.765z M356.609,27.392l0.933-11.439L356.609,27.392z M317.693,62.889l4.941-2.394
		c14.506,2.694,23.582,12.029,27.229,28.006c0.29,1.327,0.549,2.694,0.777,4.103l5.19,7.398c1.865,0.436,3.648,0.902,5.347,1.399
		l-0.466-1.617l-1.306-4.569l1.306,4.569l0.466,1.617c-1.698-0.497-3.481-0.963-5.347-1.399l-5.19-7.398
		c-0.229-1.409-0.487-2.776-0.777-4.103c-3.647-15.977-12.724-25.312-27.229-28.006L317.693,62.889z M345.886,60.464l-8.859-6.217
		c-13.116,0.208-22.214-1.108-27.29-3.948c5.076,2.839,14.174,4.155,27.29,3.948L345.886,60.464z M317.631,72.556
		c1.928,0.933,3.709,2.021,5.346,3.264l8.891-7.119l7.366,5.782l0.343,3.015l-2.455,3.606l-1.773,4.818l1.088,2.176l10.227-0.964
		l0.498,1.709l0.498,1.71l2.206-2.052l-2.206,2.052l-0.498-1.71l-0.498-1.709l-10.227,0.964l-1.088-2.176l1.773-4.818l2.455-3.606
		l-0.343-3.015l-7.366-5.782l-8.891,7.119C321.34,74.577,319.559,73.488,317.631,72.556z M332.084,108.24l1.119-0.622l6.84-5.129
		l2.33-6.962h-3.762l-5.066,0.839l5.066-0.839h3.762l-2.33,6.962l-6.84,5.129L332.084,108.24l1.461-11.874l-1.367-2.051
		l-1.368-2.052l1.026-5.812c-2.196-4.311-5.149-7.854-8.859-10.631c3.71,2.777,6.663,6.32,8.859,10.631l-1.026,5.812l1.368,2.052
		l-4.196,7.149l-0.187,3.201l-2.549,0.995c0.705-2.362,0.01-4.269-2.082-5.72c0.082-1.368-0.229-2.766-0.934-4.196
		c-0.725-1.471-1.637-2.673-2.735-3.605l-4.103-3.388c-4.041-2.86-9.283-5.823-15.729-8.89c-1.906-0.912-3.543-1.482-4.911-1.71
		c-3.563-1.119-6.734-1.471-9.511-1.057l-2.176,2.891l2.145,4.01v14.33l2.673,4.569v21.883l0.684,0.311l12.868,7.118l17.096-19.8
		h5.814l-6.839,10.257l-18.028,17.158l-9.979-5.906l-0.933-8.827l0.933,8.827l9.979,5.906l18.028-17.158l6.839-10.257
		L332.084,108.24z M338.611,95.527l8.549-6.684L338.611,95.527z M347.658,90.553l-5.223,4.787l-0.062,0.187l0.062-0.187
		L347.658,90.553z M323.008,126.548c-0.041-0.208-0.072-0.405-0.094-0.591c0-0.083,0-0.166,0-0.249
		c-0.041-1.658,0.705-3.316,2.238-4.974c4.207-3.336,10.372-5.865,18.495-7.584c-0.746-3.668,0.56-7.346,3.917-11.035
		c2.259-2.486,5.014-3.191,8.268-2.114c-3.254-1.077-6.009-0.373-8.268,2.114c-3.357,3.688-4.663,7.367-3.917,11.035
		c-8.123,1.72-14.288,4.248-18.495,7.584c-1.533,1.658-2.279,3.315-2.238,4.974c0,0.083,0,0.166,0,0.249
		C322.936,126.144,322.967,126.341,323.008,126.548z M309.301,117.783c-3.979,3.067-8.258,3.854-12.838,2.362
		c-3.211-1.367-5.035-4.269-5.471-8.703c-0.249-2.424-0.249-5.688,0-9.792c-0.145-1.968-0.663-4.227-1.555-6.776
		c-0.436-1.264-0.859-2.342-1.273-3.233l-0.777-2.642c-0.477-2.031-0.643-3.771-0.498-5.222c0.229-2.445,1.295-3.813,3.202-4.103
		c-0.394,0.643-0.643,1.482-0.747,2.518c-0.145,1.45,0.021,3.191,0.498,5.222l0.777,2.642c0.414,0.891,0.84,1.969,1.274,3.233
		c0.892,2.548,1.409,4.807,1.554,6.776c-0.248,4.103-0.248,7.367,0,9.791c0.436,4.435,2.26,7.336,5.471,8.704
		C302.564,119.741,306.026,119.482,309.301,117.783c-3.274,1.699-6.736,1.958-10.383,0.777c-3.211-1.368-5.035-4.269-5.471-8.704
		c-0.248-2.424-0.248-5.688,0-9.791c-0.145-1.969-0.662-4.228-1.554-6.776c-0.435-1.264-0.86-2.342-1.274-3.233l-0.777-2.642
		c-0.477-2.031-0.643-3.772-0.498-5.222c0.104-1.036,0.354-1.875,0.747-2.518c1.699-0.27,4.071,0.321,7.118,1.772
		c0.787,0.373,1.554,0.746,2.301,1.119c-0.374-0.042-0.705-0.042-0.996,0c-0.207,0.352-0.342,0.808-0.403,1.368
		c-0.083,0.787,0.011,1.741,0.28,2.86l0.434,1.461c0.229,0.476,0.457,1.067,0.686,1.771c0.496,1.388,0.787,2.622,0.869,3.699
		c-0.145,2.259-0.145,4.051,0,5.377c0.229,2.425,1.223,4.01,2.984,4.756c1.989,0.643,3.886,0.498,5.688-0.435
		c0.209-0.166,0.426-0.342,0.653-0.529c0.829-0.746,1.71-1.75,2.643-3.015c0.519-0.726,1.212-1.73,2.083-3.015
		c1.035-1.471,1.16-3.015,0.372-4.631c-0.103-0.228-0.217-0.446-0.342-0.653l2.581,2.145c1.098,0.933,2.01,2.135,2.734,3.606
		c1.451,2.963,1.232,5.781-0.652,8.454c-1.596,2.363-2.87,4.197-3.824,5.502c-1.678,2.3-3.283,4.134-4.817,5.502
		C310.088,117.14,309.693,117.472,309.301,117.783z M320.615,109.266c0-0.394,0.134-0.736,0.403-1.026
		c0.29-0.27,0.632-0.404,1.026-0.404c0.393,0,0.725,0.134,0.994,0.404c0.291,0.29,0.436,0.632,0.436,1.026
		c0,0.394-0.145,0.725-0.436,0.995c-0.27,0.291-0.602,0.435-0.994,0.435c-0.395,0-0.736-0.145-1.026-0.435
		C320.749,109.991,320.615,109.659,320.615,109.266z M283.066,79.985l-16.755,22.101c2.715,0.933,4.757,2.652,6.124,5.16
		c2.508,4.559,4.693,8.994,6.559,13.304c2.9,6.693,5.461,11.978,7.678,15.853c4.082,7.129,8.227,15.967,12.433,26.515
		c-4.206-10.548-8.351-19.386-12.433-26.515c-2.217-3.875-4.777-9.159-7.678-15.853c-1.865-4.31-4.051-8.745-6.559-13.304
		c-1.367-2.507-3.409-4.227-6.124-5.16L283.066,79.985z M296.525,210.381l13.365-9.419l8.921-0.653l-0.622,1.897
		c-1.926,16.35-3.75,25-5.47,25.954c-5.45,6.797-9.946,8.237-13.49,4.32l-5.72,3.171l5.72-3.171c3.544,3.917,8.04,2.477,13.49-4.32
		c1.72-0.954,3.544-9.604,5.47-25.954l0.622-1.897l5.782-17.593c1.45-11.542-0.238-18.474-5.066-20.795l4.103-3.419l-1.243-21.137
		l1.243,21.137l-4.103,3.419c-3.42,1.327-10.227,1.658-20.423,0.995h-3.17l-11.78-17.065l-19.895-32.419
		c-7.418,2.424-14.318,9.459-20.701,21.105l-8.89,15.604l5.222,13.49v19.646c5.035,15.479,12.393,23.229,22.069,23.25
		L296.525,210.381l4.041,0.435c5.822,6.569,7.252,12.734,4.289,18.494l-5.626,3.171l5.626-3.171
		c2.963-5.76,1.533-11.925-4.289-18.494L296.525,210.381z M393.629,229.435c0.188-0.829,0.375-1.657,0.561-2.487
		C394.004,227.777,393.816,228.605,393.629,229.435z M322.387,137.365c0.662,5.057,2.445,10.962,5.346,17.718
		c4.87,13.138,4.549,26.619-0.963,40.44l-2.486,10.631c17.488-5.989,27.674-13.294,30.555-21.914
		c1.305-8.352-3.119-17.034-13.273-26.048s-15.77-16.422-16.847-22.225s-1.647-8.942-1.71-9.418
		C322.034,129.573,321.826,133.179,322.387,137.365z M366.867,121.015l-16.07-6.434l-1.585-0.622c-0.021,0-0.042,0-0.062,0
		c-1.657,0.414-3.233,0.87-4.725,1.367c-8.662,4.974-12.993,9.563-12.993,13.77c-0.414,0.787-0.301,2.404,0.342,4.849
		c0.643,2.425,1.627,4.581,2.953,6.466c1.326,1.886,6.311,7.056,14.951,15.511c8.621,8.455,12.051,18.992,10.289,31.612
		c-1.119,8.02-12.766,16.952-34.938,26.794l-3.668,2.61l-2.052,11.035c-4.869,7.17-10.049,11.076-15.541,11.719
		c-6.01-0.56-9.429-1.906-10.258-4.041l-4.787,1.555l3.264,2.704l3.264,2.704l-3.264-2.704l-3.264-2.704l4.787-1.555
		c0.829,2.135,4.248,3.481,10.258,4.041c5.492-0.643,10.672-4.549,15.541-11.719l2.052-11.035l3.668-2.61
		c22.173-9.843,33.819-18.774,34.938-26.794c1.762-12.62-1.668-23.157-10.289-31.612c-8.641-8.455-13.625-13.625-14.951-15.511
		c-1.326-1.885-2.311-4.041-2.953-6.466c-0.643-2.445-0.756-4.062-0.342-4.849c0-4.207,4.331-8.796,12.993-13.77
		c1.491-0.497,3.067-0.953,4.725-1.367c0.021,0,0.041,0,0.062,0l1.585,0.622L366.867,121.015z M351.388,227.818
		c-0.767,0.228-1.554,0.477-2.362,0.746C349.834,228.295,350.621,228.046,351.388,227.818l-5.19,5.315l-16.879-7.118l-15.2,16.785
		c-5.408,0.87-11.697,0.808-18.868-0.187l6.621,5.532l1.274,1.089l7.927,6.59l28.938-15.822c0.995,1.74,1.938,3.409,2.829,5.005
		l17.623,0.839l4.291-5.595l0.217-0.094c1.805-0.767,3.242-1.668,4.32-2.704c2.219-2.176,2.746-4.963,1.586-8.361
		C367.354,225.467,360.857,225.041,351.388,227.818z M350.797,114.581c-0.083-0.332-0.145-0.653-0.186-0.964
		c-0.705-4.186,1.035-8.724,5.221-13.615c-4.186,4.891-5.926,9.429-5.221,13.615C350.652,113.928,350.714,114.249,350.797,114.581z
		 M343.647,113.151h3.575l1.989,0.809l-1.989-0.809H343.647z M362.547,239.163c-1.182,0.271-2.094,0.084-2.735-0.559
		c-0.622-0.621-0.798-1.523-0.528-2.704c0.269-1.182,0.911-2.28,1.926-3.296c1.037-1.035,2.136-1.678,3.295-1.927
		c1.182-0.27,2.082-0.093,2.705,0.528c0.643,0.643,0.83,1.554,0.559,2.735c-0.248,1.16-0.891,2.259-1.926,3.295
		C364.826,238.252,363.729,238.895,362.547,239.163z M285.242,77.094l6.744-4.663l12.465-5.906l-12.465,5.906L285.242,77.094
		l2.206-2.922L285.242,77.094z M269.949,106.81c-0.912-1.699-2.291-2.87-4.135-3.512c-1.637-0.56-3.646-0.695-6.03-0.405
		l4.663,8.082l11.189,18.246l3.077-0.497c-0.933-4.103-2.372-8.414-4.321-12.931C273.129,112.872,271.648,109.877,269.949,106.81z
		 M353.532,139.292c0.56,5.284,3.191,9.802,7.896,13.552c4.725,3.73,10.143,5.595,16.256,5.595c6.135,0,11.148-1.865,15.045-5.595
		c0.27-0.249,0.518-0.497,0.746-0.746c-0.975-3.294-2.104-6.662-3.387-10.102c-0.416-1.036-0.861-2.042-1.338-3.015
		c0.746,2.714,0.58,5.077-0.498,7.087c-1.223,2.321-3.305,3.481-6.246,3.481c-2.943,0-5.896-1.161-8.859-3.481
		c-2.943-2.321-5.016-5.129-6.217-8.424c-1.223-3.274-1.223-6.071,0-8.393c1.242-2.321,3.336-3.481,6.277-3.481
		c2.219,0,4.447,0.663,6.684,1.989c-0.311-0.249-0.621-0.487-0.932-0.715c-2.301-1.72-4.871-3.15-7.709-4.289l-4.383-1.741
		c-3.17,0.891-5.938,2.466-8.3,4.725C354.65,129.47,352.973,133.987,353.532,139.292z M361.179,101.401
		c2.86,0.85,5.511,1.813,7.958,2.891l3.574-0.871l-3.574,0.871C366.689,103.214,364.039,102.251,361.179,101.401z M383.621,133.2
		c-1.865-1.637-3.814-2.456-5.844-2.456c-2.031,0-3.543,0.818-4.539,2.456c-0.973,1.637-1.148,3.616-0.527,5.937
		c0.643,2.321,1.896,4.299,3.762,5.937c1.885,1.638,3.844,2.456,5.875,2.456c2.029,0,3.533-0.818,4.506-2.456
		c0.994-1.637,1.17-3.616,0.529-5.937C386.76,136.816,385.506,134.837,383.621,133.2z M379.891,127.76
		c0.705,0.436,1.42,0.932,2.145,1.492c2.963,2.321,5.057,5.119,6.279,8.393c0.166,0.456,0.311,0.902,0.436,1.337
		c-0.125-0.435-0.27-0.881-0.436-1.337c-1.223-3.274-3.316-6.071-6.279-8.393C381.311,128.692,380.596,128.196,379.891,127.76z
		 M369.137,104.292c7.459,3.294,12.816,7.625,16.07,12.993c0.414,1.968,0.838,4.02,1.273,6.155c0.021,0.062,0.041,0.124,0.062,0.186
		c1.141,5.575,2.32,11.698,3.545,18.371c-1.225-6.673-2.404-12.796-3.545-18.371c-0.021-0.062-0.041-0.124-0.062-0.186
		c-0.436-2.135-0.859-4.187-1.273-6.155C381.953,111.918,376.596,107.587,369.137,104.292z M386.543,123.626
		c-0.746,2.031-3.273,3.17-7.584,3.419C383.27,126.796,385.797,125.657,386.543,123.626z M403.826,176.312l-0.592-4.879
		L403.826,176.312z M373.52,239.785c0.684-0.29,1.357-0.58,2.02-0.87c11.646-5.181,17.863-9.169,18.65-11.968
		c0.02-0.104,0.041-0.195,0.061-0.278c3.068-14.9,4.291-31.188,3.67-48.864c-0.291-8.082-1.771-16.651-4.445-25.707
		c2.674,9.055,4.154,17.625,4.445,25.707c0.621,17.675-0.602,33.963-3.67,48.864c-0.02,0.083-0.041,0.175-0.061,0.278
		c-0.787,2.799-7.004,6.787-18.65,11.968C374.877,239.205,374.203,239.495,373.52,239.785z M421.947,173.235l-0.561,0.28
		L421.947,173.235z M421.387,173.515l-14.703-0.497L421.387,173.515z M360.713,99.785l4.787-7.056L360.713,99.785z M270.881,249.919
		l-1.243,12.185l5.315,0.901c0.248-2.301,0.621-4.642,1.119-7.024l5.999-3.389C278.01,253.711,274.279,252.819,270.881,249.919
		c3.398,2.9,7.129,3.792,11.19,2.673l-5.999,3.389c-0.498,2.383-0.871,4.724-1.119,7.024l-5.315-0.901L270.881,249.919z
		 M286.826,284.95l3.762,10.195c-3.461-2.881-7.646-4.27-12.558-4.165l8.175,34.253l1.461,1.617l11.066,0.435l5.688-3.822
		l2.27-25.986l-4.166-14.733l2.27-4.912l-1.243-21.883l1.243,21.883l-2.27,4.912l4.166,14.733l-2.27,25.986l-5.688,3.822
		l-11.066-0.435l-1.461-1.617l-8.175-34.253c4.911-0.104,9.097,1.284,12.558,4.165c-1.782,3.087-2.662,4.663-2.643,4.725
		c-0.704,5.988-0.693,10.973,0.032,14.951c0.372,1.989,0.808,3.377,1.306,4.165l4.724,1.896l3.202,0.374l3.791-1.12l0.188-10.972
		l-4.165-14.019l-1.306-9.636c3.793-7.813,5.678-15.636,5.658-23.468v-5.316l2.175-0.777l-0.404-6.713l0.404,6.713l-2.175,0.777
		h-4.912l-1.523-3.388l-3.016-2.455l-7.397-0.188l-2.455,1.896l-5.098,9.263l1.71,16.07L286.826,284.95
		c-3.832-0.042-7.014,0.953-9.541,2.983l-1.213-5.035c-0.498-2.052-0.861-4.145-1.088-6.279c-0.518-4.393-0.528-8.932-0.031-13.614
		c-0.497,4.683-0.486,9.222,0.031,13.614c0.227,2.135,0.59,4.228,1.088,6.279l1.213,5.035
		C279.812,285.903,282.994,284.908,286.826,284.95z M271.751,286.504v0.031c-26.752,20.121-38.16,36.554-34.223,49.299l-3.077-4.01
		l0.839-23.376l-2.269-3.419l0.684-8.548c4.145-6.423,15.697-13.812,34.658-22.162L271.751,286.504l-3.388-12.185
		c-18.961,8.351-30.514,15.739-34.658,22.162l-0.684,8.548l2.269,3.419l-0.839,23.376l3.077,4.01
		c-3.938-12.745,7.471-29.178,34.223-49.299V286.504c1.451-0.062,2.892-1.265,4.321-3.605
		C274.643,285.239,273.202,286.441,271.751,286.504z M269.638,262.104l-0.653,6.093l-10.506-0.56l10.506,0.56L269.638,262.104z
		 M294.939,253.338l6.932-5.191L294.939,253.338z M291.986,239.91c-1.409,3.667-1.43,7.325-0.062,10.973
		C290.557,247.235,290.577,243.577,291.986,239.91z M275.45,241.464l13.272-4.258L275.45,241.464z M268.363,274.319l0.621-6.123
		L268.363,274.319z M278.03,290.98l-0.745-3.047L278.03,290.98z M271.751,286.535l3.389,12.185l1.337,15.821l2.299,2.549l7.43,8.144
		l-7.43-8.144l-2.299-2.549l-1.337-15.821L271.751,286.535z M342.871,316.312c-2.176-3.522-1.141-10.112,3.107-19.769
		c0.021-0.083,0.053-0.155,0.094-0.218l0.311-0.652c2.425-5.43,6.165-12.257,11.222-20.484c0.518-8.123,4.797-14.807,12.837-20.049
		c-8.04,5.242-12.319,11.926-12.837,20.049c-5.057,8.228-8.797,15.055-11.222,20.484l-0.311,0.652
		c-0.041,0.062-0.072,0.135-0.094,0.218C341.73,306.2,340.695,312.79,342.871,316.312z M327.981,335.678l-1.46-11.19
		c15.479-23.395,24.109-41.32,25.892-53.774c1.182-3.542-2.011-12.112-9.573-25.705c7.562,13.593,10.755,22.163,9.573,25.705
		c-1.782,12.454-10.413,30.38-25.892,53.774L327.981,335.678z M304.42,323.463l-0.373,4.228
		c-5.159,13.655-12.092,24.234-20.795,31.735l-15.479,7.554c-1.576,0.767-3.016,0.788-4.321,0.062
		c-1.989-1.139-3.647-4.02-4.974-8.641c-0.455-1.596-0.881-3.398-1.273-5.408l-2.426-1.928l-11.718-9.293l-2.487-1.99l-3.046-3.947
		l3.046,3.947l2.487,1.99l11.718,9.293l2.426,1.928c0.393,2.01,0.818,3.812,1.273,5.408c1.326,4.621,2.984,7.502,4.974,8.641
		c1.306,0.727,2.745,0.705,4.321-0.062l15.479-7.554c8.703-7.501,15.636-18.08,20.795-31.735L304.42,323.463z M298.11,362.473
		c-7.792,2.341-16.909,6.869-27.354,13.583c-4.228-1.119-9.305-3.958-15.231-8.518c5.927,4.56,11.004,7.398,15.231,8.518
		C281.201,369.342,290.318,364.813,298.11,362.473z M263.452,367.041c23.333-14.153,35.093-27.405,35.28-39.756
		C298.545,339.636,286.785,352.888,263.452,367.041z M367.893,281.406c-11.004,2.674-18.173,7.43-21.51,14.268
		C349.72,288.836,356.889,284.08,367.893,281.406z M167.932,143.426c4.601-1.989,8.849-4.03,12.745-6.124v-5.284
		c-1.886-0.933-3.202-2.321-3.948-4.165c12.931-8.89,22.484-16.236,28.659-22.038c0.394-2.134,0.135-3.854-0.777-5.16
		c-1.409-1.637-2.249-3.688-2.518-6.155c2.238-0.953,4.207,0.176,5.906,3.389c3.294,0.331,6.88-3.575,10.755-11.719
		c0.56-2.569-0.134-5.139-2.083-7.708l-0.777-6.465l-5.223-2.859l-2.766-1.523l-14.392-0.59l-17.967,14.392
		c-7.439,3.502-13.428,7.335-17.966,11.5c-4.87,4.476-8.062,9.325-9.574,14.547l-3.171,5.719l-5.906,10.6l0.529,6.683l6.341,13.304
		l-6.341-13.304l-0.529-6.683l5.906-10.6l3.171-5.719c1.512-5.222,4.704-10.071,9.574-14.547c4.538-4.165,10.527-7.999,17.966-11.5
		l17.967-14.392l14.392,0.59l2.766,1.523l5.223,2.859l0.777,6.465c1.948,2.569,2.642,5.139,2.083,7.708
		c-3.875,8.144-7.46,12.05-10.755,11.719c-1.699-3.212-3.668-4.342-5.906-3.389c0.269,2.466,1.108,4.518,2.518,6.155
		c0.912,1.306,1.171,3.026,0.777,5.16c-6.175,5.802-15.728,13.148-28.659,22.038c0.746,1.844,2.062,3.232,3.948,4.165v5.284
		C176.781,139.396,172.533,141.437,167.932,143.426z M149.655,143.769h2.207h4.196h7.709h3.294h-3.294h-7.709h-4.196H149.655h-3.854
		h-4.663l-1.896,3.73l-12.402,24.09l-5.999,40.967l23.157-19.52l0.311,0.03l6.994,1.803l-9.356-22.846l-3.077-7.522l1.865-3.544
		L149.655,143.769z M167.062,143.769l0.87-0.218c0-0.062,0-0.103,0-0.125C167.642,143.53,167.352,143.644,167.062,143.769z
		 M258.354,50.891l1.027,5.75L258.354,50.891z M235.353,53.875l-12.216,4.88L235.353,53.875z M151.521,69.976l-5.906,10.817h-4.818
		c-0.766,0.601-1.533,1.264-2.3,1.989l4.756,6.963l-11.283,8.485l-3.947-2.113c-0.601,0.974-1.202,1.979-1.803,3.015l7.708,5.564
		l-7.305,6.466l7.305-6.466l-7.708-5.564c0.601-1.036,1.202-2.041,1.803-3.015l3.947,2.113l11.283-8.485l-4.756-6.963
		c0.767-0.725,1.534-1.388,2.3-1.989h4.818L151.521,69.976z M175.547,81.415l-2.953-2.394c-7.108,0.912-13.407,4.507-18.898,10.786
		l3.885,3.108l-3.885-3.108c5.491-6.279,11.791-9.874,18.898-10.786L175.547,81.415z M148.349,114.581
		c-1.595-2.072-0.683-5.605,2.736-10.6c3.357-4.953,8.237-9.905,14.641-14.858c6.382-4.953,12.412-8.455,18.091-10.506
		c5.678-2.052,9.314-2.042,10.91,0.031c0.29,0.352,0.487,0.756,0.591,1.212c0.601,2.03-0.404,5.015-3.015,8.952
		c-0.083,0.146-0.176,0.28-0.28,0.404c-3.377,4.994-8.258,9.967-14.64,14.92c-6.403,4.953-12.434,8.434-18.091,10.444
		c-0.166,0.083-0.332,0.145-0.497,0.186c-4.435,1.534-7.574,1.762-9.418,0.684C148.981,115.224,148.64,114.933,148.349,114.581
		c0.291,0.352,0.632,0.643,1.026,0.87c1.844,1.078,4.984,0.85,9.418-0.684c0.166-0.042,0.332-0.103,0.497-0.186
		c5.657-2.01,11.688-5.492,18.091-10.444c6.382-4.953,11.263-9.926,14.64-14.92c0.104-0.125,0.197-0.259,0.28-0.404
		c2.611-3.937,3.616-6.921,3.015-8.952c-0.104-0.457-0.301-0.86-0.591-1.212c-1.595-2.073-5.232-2.083-10.91-0.031
		c-5.679,2.051-11.708,5.554-18.091,10.506c-6.403,4.953-11.283,9.905-14.641,14.858
		C147.666,108.976,146.754,112.509,148.349,114.581z M151.054,114.27c-0.332-0.207-0.622-0.466-0.87-0.777
		c-1.409-1.803-0.508-4.984,2.705-9.542c3.17-4.539,7.729-9.107,13.677-13.708c5.926-4.6,11.5-7.895,16.723-9.885
		c5.201-1.948,8.506-2.02,9.916-0.217c0.248,0.311,0.424,0.664,0.528,1.057c-0.104-0.394-0.28-0.746-0.528-1.057
		c-1.41-1.803-4.715-1.73-9.916,0.217c-5.222,1.99-10.796,5.285-16.723,9.885c-5.947,4.601-10.506,9.17-13.677,13.708
		c-3.212,4.558-4.114,7.739-2.705,9.542C150.432,113.804,150.722,114.063,151.054,114.27z M190.312,88.719
		c2.446-3.605,3.43-6.32,2.954-8.144c-1.72-0.974-4.735-0.653-9.045,0.963c-5.222,1.989-10.797,5.284-16.723,9.885
		c-5.948,4.6-10.506,9.169-13.677,13.708c-2.673,3.771-3.75,6.61-3.232,8.517c1.637,0.933,4.507,0.653,8.61-0.839
		c-4.103,1.492-6.973,1.772-8.61,0.839c-0.518-1.907,0.559-4.746,3.232-8.517c3.171-4.538,7.729-9.107,13.677-13.708
		c5.926-4.601,11.5-7.896,16.723-9.885c4.31-1.616,7.325-1.938,9.045-0.963C193.742,82.399,192.758,85.114,190.312,88.719z
		 M159.198,112.809c0.146-0.062,0.291-0.114,0.435-0.155c5.202-1.948,10.776-5.222,16.723-9.823
		c5.927-4.601,10.485-9.19,13.677-13.77c0.104-0.124,0.197-0.238,0.279-0.342c-1.243-0.062-3.025,0.394-5.346,1.368
		c-3.854,1.617-8.03,4.176-12.527,7.678c-4.517,3.481-8.029,6.88-10.537,10.195C160.369,109.97,159.467,111.586,159.198,112.809z
		 M144.837,113.182l-22.66,18.992L144.837,113.182z M126.218,99.132c-2.507,4.373-5.025,9.366-7.553,14.982
		C121.193,108.499,123.711,103.505,126.218,99.132z M138.496,82.782c-3.502,3.253-6.994,7.699-10.475,13.335
		C131.502,90.481,134.994,86.036,138.496,82.782z M105.89,148.399l-2.86,1.71l-10.817,13.428l10.817-13.428L105.89,148.399z
		 M156.059,143.769c0.103,1.036-0.052,2.248-0.466,3.636c-0.477,1.575-1.15,2.922-2.021,4.041c-0.85,1.119-1.647,1.679-2.394,1.679
		s-1.222-0.56-1.43-1.679c-0.187-1.119-0.042-2.466,0.435-4.041c0.415-1.388,0.974-2.601,1.679-3.636
		c-0.705,1.036-1.264,2.248-1.679,3.636c-0.477,1.575-0.622,2.922-0.435,4.041c0.208,1.119,0.684,1.679,1.43,1.679
		s1.544-0.56,2.394-1.679c0.871-1.119,1.543-2.466,2.021-4.041C156.007,146.017,156.162,144.804,156.059,143.769z M153.665,174.23
		c-0.58,2.238-0.446,4.942,0.404,8.113c0.849,3.17,2.166,5.895,3.947,8.175c1.824,2.3,3.596,3.481,5.315,3.543
		c0.539,0.021,1.026-0.072,1.461-0.28c0.539-0.269,0.984-0.715,1.336-1.336c-0.456-0.021-0.922-0.114-1.398-0.28
		c-1.264-0.497-2.56-1.585-3.886-3.263c-1.803-2.28-3.129-5.004-3.979-8.175c-0.87-3.17-0.995-5.875-0.374-8.113
		c0.146-0.642,0.363-1.181,0.653-1.616C155.468,170.956,154.307,172.033,153.665,174.23z M157.146,170.998h0.031
		c0.456,0.021,0.912,0.125,1.368,0.311c1.284,0.477,2.569,1.554,3.854,3.233c1.824,2.299,3.17,5.035,4.041,8.206
		c0.83,3.17,0.933,5.865,0.311,8.082c-0.166,0.643-0.373,1.181-0.622,1.617c0.249-0.436,0.456-0.974,0.622-1.617
		c0.622-2.217,0.519-4.911-0.311-8.082c-0.87-3.17-2.217-5.906-4.041-8.206c-1.285-1.679-2.57-2.756-3.854-3.233
		c-0.456-0.186-0.912-0.29-1.368-0.311H157.146z M151.303,194.869l1.026,2.487l14.267,4.041c1.119-0.601,2.124-1.223,3.015-1.865
		c-0.891,0.643-1.896,1.265-3.015,1.865l-14.267-4.041L151.303,194.869z M169.611,199.532l4.911,1.243l4.569-6.62l-0.373-39.477
		c1.492-6.113,5.533-13.138,12.123-21.075c2.217-2.694,4.735-5.481,7.553-8.362c-2.818,2.881-5.336,5.668-7.553,8.362l-8.61,6.155
		l-14.299,3.792c0.166,1.077,0.021,2.362-0.435,3.854c-0.477,1.575-1.15,2.922-2.021,4.041c-0.85,1.119-1.647,1.679-2.394,1.679
		c-0.746,0-1.222-0.56-1.429-1.679c-0.187-1.119-0.042-2.466,0.435-4.041c0.415-1.388,0.974-2.601,1.679-3.636
		c-0.705,1.036-1.264,2.248-1.679,3.636c-0.476,1.575-0.622,2.922-0.435,4.041c0.207,1.119,0.683,1.679,1.429,1.679
		c0.747,0,1.544-0.56,2.394-1.679c0.871-1.119,1.544-2.466,2.021-4.041c0.456-1.492,0.601-2.777,0.435-3.854l14.299-3.792
		l-11.843,23.654v6.776l4.289,17.469C176.169,192.093,174.481,196.051,169.611,199.532z M211.698,111.317
		c-0.747-0.726-1.792-0.943-3.14-0.653c-1.347,0.311-2.601,1.047-3.761,2.208c-1.181,1.181-1.927,2.445-2.238,3.792
		c-0.29,1.368-0.062,2.425,0.685,3.171c0.083,0.083,0.166,0.155,0.248,0.218l-1.834,1.927c-1.119,1.098-2.207,2.186-3.264,3.263
		c-4.683,4.207-10.589,8.227-17.717,12.061c7.128-3.833,13.034-7.854,17.717-12.061c1.057-1.077,2.145-2.165,3.264-3.263
		l1.834-1.927c-0.083-0.062-0.166-0.135-0.248-0.218c-0.747-0.746-0.975-1.803-0.685-3.171c0.311-1.347,1.058-2.61,2.238-3.792
		c1.161-1.161,2.414-1.896,3.761-2.208C209.906,110.374,210.952,110.592,211.698,111.317z M169.611,76.597l2.984,2.425
		L169.611,76.597z M209.926,118.56c-1.637-0.871-2.953-0.756-3.948,0.342c-0.995,1.099-1.824,1.481-2.487,1.15
		c0.663,0.331,1.492-0.052,2.487-1.15C206.973,117.803,208.29,117.689,209.926,118.56z M233.705,296.481l1.554-20.391
		L233.705,296.481z M120.841,212.556l1.896,3.948L120.841,212.556z M114.406,236.956l8.797-0.963L114.406,236.956z M254.779,351.064
		c-0.27-11.335,7.73-22.66,23.996-33.975C262.51,328.404,254.51,339.729,254.779,351.064z M276.477,314.541
		c-7.854,0.208-18.992,9.284-33.415,27.23C257.484,323.825,268.622,314.749,276.477,314.541z M258.479,358.4
		c6.486,3.108,16.215-7.408,29.188-31.55C274.693,350.992,264.965,361.509,258.479,358.4z M257.391,101.464
		c3.523-0.415,6.497-0.208,8.921,0.622C263.888,101.256,260.914,101.049,257.391,101.464z"/>
	<path fill-rule="evenodd" clip-rule="evenodd" d="M358.102,73.955l-10.443-12.651l3.295,0.373c1.885-5.098,4.621-7.709,8.205-7.833
		l2.021,1.025l-4.165,11.999l0.467,5.595L358.102,73.955z M426.766,125.74v7.211l-2.176,4.228l-12.277,4.725l-4.385,2.829
		l-6.588,9.729l-1.742-8.144l5.377-4.569l9.014-4.942L426.766,125.74z M430.465,183.648l-4.943,4.663l-10.352,7.491l-8.641,2.985
		l-2.703-22.475l8.641,1.15l8.92-3.947l5.969,0.187L430.465,183.648z M128.674,241.743l-5.471-5.75l-0.466-19.489l4.476,9.231
		l20.298,15.138c3.958-5.325,9.408-5.739,16.35-1.243l1.181,7.118l28.286,4.289l16.878-5.222l13.552-10.692l6.901-0.436
		l27.322,6.186l17.469,0.591c-2.279,1.823-4.331,3.729-6.155,5.719c-2.424,2.611-4.475,5.347-6.153,8.207
		c-2.239,3.854-3.792,7.937-4.663,12.247c-0.166,0.808-0.311,1.626-0.436,2.455l-4.506,4.881
		c-6.383,0.455-12.476,0.828-18.278,1.118c-0.415,0.021-0.829,0.041-1.243,0.062c-6.113,0.312-11.895,0.529-17.345,0.654v-0.032
		l-0.062,0.032l-8.393,3.978l-6.59-0.311l-6.621,2.673l-5.812-1.273l-5.035-5.471l-7.057,0.932l-5.19-6.278l-13.49-5.347
		l-4.259-11.626l-2.207-1.243l-1.088-3.792l-10.226-7.678L128.674,241.743z M224.598,97.609c-0.478-0.166-1.306,0.094-2.487,0.777
		c-0.042,0.021-0.083,0.052-0.125,0.093V84.398l3.016-2.518c4.517-4.289,8.827-7.771,12.93-10.444
		c9.263-6.051,17.439-7.926,24.525-5.626l2.705,1.523l2.734-2.394l8.393-0.311l4.135,1.71c-3.254,1.388-6.424,2.787-9.512,4.196
		l-5.75-3.202l5.75,3.202c-17.531,7.978-32.338,16.329-44.418,25.053L224.598,97.609z M333.545,96.366l-1.461,11.874l-7.738,4.166
		h-5.814l-17.096,19.8l-12.868-7.118l-0.684-0.311v-21.883l-2.673-4.569v-14.33l-2.145-4.01l2.176-2.891
		c2.776-0.415,5.947-0.062,9.511,1.057c1.368,0.228,3.005,0.798,4.911,1.71c6.445,3.067,11.688,6.03,15.729,8.89l4.103,3.388
		c1.099,0.933,2.011,2.134,2.735,3.605c0.705,1.43,1.016,2.829,0.934,4.196c2.092,1.451,2.787,3.357,2.082,5.72l2.549-0.995
		l0.187-3.201l4.196-7.149L333.545,96.366z M290.091,79.674c-1.907,0.29-2.974,1.658-3.202,4.103
		c-0.145,1.451,0.021,3.191,0.498,5.222l0.777,2.642c0.414,0.891,0.838,1.969,1.273,3.233c0.892,2.549,1.41,4.808,1.555,6.776
		c-0.249,4.103-0.249,7.367,0,9.792c0.436,4.435,2.26,7.336,5.471,8.703c4.58,1.492,8.858,0.705,12.838-2.362
		c0.393-0.311,0.787-0.643,1.181-0.995c1.534-1.368,3.14-3.202,4.817-5.502c0.954-1.306,2.229-3.14,3.824-5.502
		c1.885-2.673,2.104-5.491,0.652-8.454c-0.725-1.471-1.637-2.673-2.734-3.606l-2.581-2.145c0.125,0.207,0.239,0.425,0.342,0.653
		c0.788,1.616,0.663,3.16-0.372,4.631c-0.871,1.285-1.564,2.29-2.083,3.015c-0.933,1.264-1.813,2.269-2.643,3.015
		c-0.228,0.187-0.444,0.363-0.653,0.529c-1.802,0.933-3.698,1.078-5.688,0.435c-1.762-0.746-2.756-2.331-2.984-4.756
		c-0.145-1.326-0.145-3.119,0-5.377c-0.082-1.077-0.373-2.311-0.869-3.699c-0.229-0.705-0.457-1.295-0.686-1.771l-0.434-1.461
		c-0.27-1.119-0.363-2.073-0.28-2.86c0.062-0.56,0.196-1.016,0.403-1.368c0.291-0.042,0.622-0.042,0.996,0
		c-0.747-0.373-1.514-0.746-2.301-1.119C294.162,79.995,291.79,79.404,290.091,79.674z M299.51,82.565
		c5.408,2.673,9.883,5.263,13.427,7.771l1.523,1.243l-1.523-1.243C309.393,87.828,304.918,85.238,299.51,82.565z M320.615,109.266
		c0,0.394,0.134,0.725,0.403,0.995c0.29,0.291,0.632,0.435,1.026,0.435c0.393,0,0.725-0.145,0.994-0.435
		c0.291-0.27,0.436-0.601,0.436-0.995c0-0.394-0.145-0.736-0.436-1.026c-0.27-0.27-0.602-0.404-0.994-0.404
		c-0.395,0-0.736,0.134-1.026,0.404C320.749,108.53,320.615,108.872,320.615,109.266z M318.812,200.309l-8.921,0.653l-13.365,9.419
		l-34.565-3.855c-9.677-0.021-17.034-7.771-22.069-23.25V163.63l-5.222-13.49l8.89-15.604c6.383-11.646,13.283-18.681,20.701-21.105
		l19.895,32.419l11.78,17.065h3.17c10.196,0.663,17.003,0.332,20.423-0.995c4.828,2.321,6.517,9.253,5.066,20.795L318.812,200.309z
		 M323.008,126.548c0.062,0.476,0.633,3.616,1.71,9.418s6.692,13.21,16.847,22.225s14.578,17.697,13.273,26.048
		c-2.881,8.62-13.066,15.925-30.555,21.914l2.486-10.631c5.512-13.821,5.833-27.302,0.963-40.44
		c-2.9-6.755-4.684-12.661-5.346-17.718C321.826,133.179,322.034,129.573,323.008,126.548z M362.547,239.163
		c1.182-0.269,2.279-0.911,3.295-1.927c1.035-1.036,1.678-2.135,1.926-3.295c0.271-1.182,0.084-2.093-0.559-2.735
		c-0.623-0.621-1.523-0.798-2.705-0.528c-1.159,0.249-2.258,0.892-3.295,1.927c-1.015,1.016-1.657,2.114-1.926,3.296
		c-0.27,1.181-0.094,2.083,0.528,2.704C360.453,239.247,361.365,239.434,362.547,239.163z M351.388,227.818
		c9.47-2.777,15.966-2.352,19.489,1.274c1.16,3.398,0.633,6.186-1.586,8.361c-1.078,1.036-2.516,1.938-4.32,2.704l-0.217,0.094
		l-4.291,5.595l-17.623-0.839c-0.891-1.596-1.834-3.265-2.829-5.005l-28.938,15.822l-7.927-6.59l-1.274-1.089l-6.621-5.532
		c7.171,0.994,13.46,1.057,18.868,0.187l15.2-16.785l16.879,7.118L351.388,227.818z M269.949,106.81
		c1.699,3.067,3.18,6.062,4.443,8.983c1.949,4.518,3.389,8.828,4.321,12.931l-3.077,0.497l-11.189-18.246l-4.663-8.082
		c2.384-0.29,4.394-0.155,6.03,0.405C267.658,103.94,269.037,105.111,269.949,106.81z M353.532,139.292
		c-0.56-5.305,1.118-9.823,5.035-13.553c2.362-2.259,5.13-3.833,8.3-4.725l4.383,1.741c2.838,1.139,5.408,2.569,7.709,4.289
		c0.311,0.228,0.621,0.466,0.932,0.715c-2.236-1.326-4.465-1.989-6.684-1.989c-2.941,0-5.035,1.16-6.277,3.481
		c-1.223,2.321-1.223,5.119,0,8.393c1.201,3.295,3.273,6.103,6.217,8.424c2.963,2.321,5.916,3.481,8.859,3.481
		c2.941,0,5.023-1.161,6.246-3.481c1.078-2.01,1.244-4.373,0.498-7.087c0.477,0.974,0.922,1.979,1.338,3.015
		c1.283,3.44,2.412,6.808,3.387,10.102c-0.229,0.249-0.477,0.497-0.746,0.746c-3.896,3.73-8.91,5.595-15.045,5.595
		c-6.113,0-11.531-1.865-16.256-5.595C356.724,149.094,354.092,144.577,353.532,139.292z M383.621,133.2
		c1.885,1.637,3.139,3.616,3.762,5.937c0.641,2.321,0.465,4.299-0.529,5.937c-0.973,1.638-2.477,2.456-4.506,2.456
		c-2.031,0-3.99-0.818-5.875-2.456c-1.865-1.637-3.119-3.616-3.762-5.937c-0.621-2.321-0.445-4.3,0.527-5.937
		c0.996-1.637,2.508-2.456,4.539-2.456C379.807,130.745,381.756,131.563,383.621,133.2z M141.946,172.023l9.356,22.846l-6.994-1.803
		L141.946,172.023l2.363,21.043l-0.311-0.03l-23.157,19.52l5.999-40.967l12.402-24.09l1.492,13.458l-1.492-13.458l1.896-3.73h4.663
		h3.854l-8.921,17.188l-1.865,3.544L141.946,172.023z M190.312,88.719c-0.083,0.104-0.176,0.218-0.279,0.342
		c-3.191,4.58-7.75,9.169-13.677,13.77c-5.947,4.601-11.521,7.875-16.723,9.823c-0.145,0.041-0.29,0.093-0.435,0.155
		c0.27-1.223,1.171-2.839,2.705-4.849c2.507-3.315,6.02-6.714,10.537-10.195c4.497-3.502,8.673-6.061,12.527-7.678
		C187.287,89.113,189.069,88.657,190.312,88.719z M153.665,174.23c0.642-2.197,1.803-3.274,3.481-3.233
		c-0.29,0.436-0.508,0.974-0.653,1.616c-0.622,2.238-0.497,4.942,0.374,8.113c0.849,3.171,2.176,5.895,3.979,8.175
		c1.326,1.678,2.622,2.766,3.886,3.263c0.476,0.166,0.943,0.26,1.398,0.28c-0.352,0.621-0.797,1.067-1.336,1.336
		c-0.435,0.208-0.922,0.301-1.461,0.28c-1.719-0.062-3.491-1.243-5.315-3.543c-1.782-2.28-3.098-5.004-3.947-8.175
		C153.219,179.172,153.085,176.468,153.665,174.23z M174.522,200.775l-4.911-1.243c4.87-3.481,6.559-7.439,5.066-11.874
		l-4.289-17.469v-6.776l11.843-23.654l8.61-6.155c-6.59,7.937-10.631,14.961-12.123,21.075l0.373,39.477L174.522,200.775z
		 M237.932,71.437l4.725,2.797c-4.538,1.513-9.025,4.714-13.459,9.604c4.435-4.89,8.921-8.091,13.459-9.604L237.932,71.437z"/>
	
		<path fill-rule="evenodd" clip-rule="evenodd" fill="none" stroke="#000000" stroke-width="2" stroke-linecap="round" stroke-linejoin="round" stroke-miterlimit="3" d="
		M276.289,64.629l1.182-5.968l-1.492-8.362l7.46-4.196l9.574-0.311l2.983,8.082l8.953-5.968l4.787,2.393l26.016-36.119l4.166-5.409
		h10.164l6.559,4.196l0.901,2.984l1.802,2.984l0.312,8.361l-6.559,12.558l-6.59,12.558l-0.622,8.051l1.772,0.839l5.034-7.771
		l4.478-0.715l1.988,1.026l2.021,1.025l-4.165,11.999l0.467,5.595l0.621,1.492l8.578,8.952l1.4,3.761l-2.58,6.062l0.311,2.984
		l6.9,7.709l2.518-0.311l9.42-9.76l11.467-8.175l3.389-1.337c2.943-0.767,6.113-0.787,9.512-0.062
		c1.037-0.145,2.725,1.44,5.066,4.756c4.746,6.776,9.502,18.288,14.268,34.534c-0.207-0.125-0.527,0.29-0.963,1.244l-0.621,1.429
		v7.211l-2.176,4.228l-12.277,4.725l-4.385,2.829l-6.588,9.729l1.895,16.972l3.449,1.585l14.611-2.829l5.502,1.709l0.559,1.803
		l3.109,9.947l1.336,4.29l-0.623,5.813l-2.672,1.398l-13.336,0.652l-8.641,2.985l0.467,21.851l-4.26,3.606l-0.775,4.383
		l-8.332,0.808l-4.072,7.833l-5.189,6.776l-3.295-1.896l-7.553-2.362l-5.348,3.638l0.654,6.123l1.615,5.595l4.662,16.227
		l-7.211,10.039l-25.021,34.906l-15.014,18.246l0.124,1.119l0.155,1.12l-11.346,15.79l-3.916,1.088l-14.765,8.797l-8.175,8.517
		l-5.035,6.744l-5.969,3.638l-3.14,0.466l-6.9-0.466l-9.915-7.864l-2.363-3.761l-1.088-2.208l-6.434-12.899l-6.279-5.004
		c-1.513-0.27-3.077-1.078-4.693-2.424c-1.762-1.452-3.108-3.307-4.041-5.565c-0.788-1.885-1.285-4.051-1.492-6.496
		c-0.456-5.367-0.963-10.744-1.523-16.133l-0.684-6.464l-2.828-5.378l-0.342-13.987l-2.176-8.3l-6.932-5.999l-1.865,0.964
		l0.435-3.046c-0.021,0-0.042,0-0.062,0l-8.393,3.978l-6.59-0.311l-6.621,2.673l-5.812-1.273l-5.035-5.471l-7.057,0.932l-5.19-6.278
		l-13.49-5.347l-4.259-11.626l-2.207-1.243l-1.088-3.792l-10.226-7.678l-11.967,0.373l-8.766,0.249l-5.502-5.036l-10.692-3.761
		l-14.143-21.229l5.315-17.345l-6.248-22.411l3.574-8.672l0.902-7.771l7.616-7.057l5.16-0.311l2.828-1.709l13.459-14.516
		l-2.611-0.87l5.501-5.129l-7.771-8.952c0.291-0.663,0.57-1.306,0.84-1.927l0.528-1.181l0.124-0.311l-2.393-2.549
		c1.554-5.719,4.569-11.864,9.045-18.433c6.983-10.278,15.676-17.894,26.08-22.846l1.212-1.958c2.342-1.243,4.88-1.482,7.616-0.715
		c0.228,0.083,1.544,1.544,3.947,4.383l5.315,4.911l35.56-26.576l16.815,6.559l-11.438-23.033l-0.311-5.377l7.771-8.051l3.294,0.591
		l1.492,6.87l12.558,26.296c2.238,0.622,3.927,0.321,5.066-0.901l2.083-3.885l8.393-4.166l7.459,5.968h3.295l6.248,9.263v4.787
		L276.289,64.629z M262.457,65.811l2.705,1.523l2.734-2.394 M270.912,70.536l-5.75-3.202 M271.223,70.691l-0.311-0.155
		c-17.531,7.978-32.338,16.329-44.418,25.053l-1.896,2.02c0.103,0.042,0.186,0.094,0.248,0.156c0.394,0.394,0.176,1.295-0.653,2.704
		c-0.559,0.954-1.295,1.948-2.207,2.984c-0.435,0.498-0.901,0.995-1.398,1.493c-1.575,1.575-3.067,2.776-4.476,3.605
		c-1.243,0.726-2.083,0.984-2.518,0.777l-1.896,1.99l0.031,0.031c0.767,0.767,0.995,1.823,0.684,3.17
		c-0.104,0.498-0.27,0.974-0.498,1.43 M270.912,70.536c3.088-1.409,6.258-2.808,9.512-4.196l-4.135-1.71 M280.424,66.339
		c-0.561,6.527,2.673,5.74,9.697-2.363l-0.155-2.921l2.487-4.041 M295.996,53.875l-3.232,6.901
		c-0.933,1.161-1.812,2.228-2.643,3.201 M306.906,70.753h8.891l1.834,1.802l3.48-8.921l-3.418-0.746l-4.974,2.393l-3.046-1.212
		l-5.223,2.456L306.906,70.753z M264.26,113.431l-6.869-11.967l21.852-24.929l8.206-2.362c3.503-5.16,8.569-8.755,15.2-10.786
		c1.036-0.311,2.113-0.591,3.232-0.839l3.793,1.522 M339.141,27.422c0.518,0.104,1.025,0.218,1.523,0.342l3.822-5.688
		c2.279,0.891,3.875,2.704,4.787,5.44 M340.664,27.765c7.149,1.782,11.293,5.812,12.434,12.091 M356.609,27.392l0.933-11.439
		 M317.693,62.889l4.941-2.394c14.506,2.694,23.582,12.029,27.229,28.006c0.29,1.327,0.549,2.694,0.777,4.103l5.19,7.398
		c1.865,0.436,3.648,0.902,5.347,1.399l-0.466-1.617l-1.306-4.569 M345.886,60.464l-8.859-6.217
		c-13.116,0.208-22.214-1.108-27.29-3.948 M347.658,61.304l3.295,0.373c1.885-5.098,4.621-7.709,8.205-7.833 M317.631,72.556
		c1.928,0.933,3.709,2.021,5.346,3.264l8.891-7.119l7.366,5.782l0.343,3.015l-2.455,3.606l-1.773,4.818l1.088,2.176l10.227-0.964
		l0.498,1.709l0.498,1.71l2.206-2.052 M332.084,108.24l1.119-0.622l6.84-5.129l2.33-6.962h-3.762l-5.066,0.839L332.084,108.24
		l-7.738,4.166l-6.839,10.257l-18.028,17.158l-9.979-5.906l-0.933-8.827l-0.684-0.311v-21.883l-2.673-4.569v-14.33l-2.145-4.01
		l-16.755,22.101c2.715,0.933,4.757,2.652,6.124,5.16c2.508,4.559,4.693,8.994,6.559,13.304c2.9,6.693,5.461,11.978,7.678,15.853
		c4.082,7.129,8.227,15.967,12.433,26.515c10.196,0.663,17.003,0.332,20.423-0.995l4.103-3.419l-1.243-21.137
		c-0.561-4.186-0.353-7.792,0.621-10.816c-0.041-0.208-0.072-0.405-0.094-0.591c0-0.083,0-0.166,0-0.249
		c-0.041-1.658,0.705-3.316,2.238-4.974c4.207-3.336,10.372-5.865,18.495-7.584c-0.746-3.668,0.56-7.346,3.917-11.035
		c2.259-2.486,5.014-3.191,8.268-2.114 M338.611,95.527l8.549-6.684 M347.658,90.553l-5.223,4.787l-0.062,0.187 M309.301,117.783
		c0.393-0.311,0.787-0.643,1.181-0.995c1.534-1.368,3.14-3.202,4.817-5.502c0.954-1.306,2.229-3.14,3.824-5.502
		c1.885-2.673,2.104-5.491,0.652-8.454c-0.725-1.471-1.637-2.673-2.734-3.606l-2.581-2.145c0.125,0.207,0.239,0.425,0.342,0.653
		c0.788,1.616,0.663,3.16-0.372,4.631c-0.871,1.285-1.564,2.29-2.083,3.015c-0.933,1.264-1.813,2.269-2.643,3.015
		c-0.228,0.187-0.444,0.363-0.653,0.529c-1.802,0.933-3.698,1.078-5.688,0.435c-1.762-0.746-2.756-2.331-2.984-4.756
		c-0.145-1.326-0.145-3.119,0-5.377c-0.082-1.077-0.373-2.311-0.869-3.699c-0.229-0.705-0.457-1.295-0.686-1.771l-0.434-1.461
		c-0.27-1.119-0.363-2.073-0.28-2.86c0.062-0.56,0.196-1.016,0.403-1.368c0.291-0.042,0.622-0.042,0.996,0
		c-0.747-0.373-1.514-0.746-2.301-1.119c-3.047-1.451-5.419-2.042-7.118-1.772c-0.394,0.643-0.643,1.482-0.747,2.518
		c-0.145,1.45,0.021,3.191,0.498,5.222l0.777,2.642c0.414,0.891,0.84,1.969,1.274,3.233c0.892,2.548,1.409,4.807,1.554,6.776
		c-0.248,4.103-0.248,7.367,0,9.791c0.436,4.435,2.26,7.336,5.471,8.704C302.564,119.741,306.026,119.482,309.301,117.783
		c-3.979,3.067-8.258,3.854-12.838,2.362c-3.211-1.367-5.035-4.269-5.471-8.703c-0.249-2.424-0.249-5.688,0-9.792
		c-0.145-1.968-0.663-4.227-1.555-6.776c-0.436-1.264-0.859-2.342-1.273-3.233l-0.777-2.642c-0.477-2.031-0.643-3.771-0.498-5.222
		c0.229-2.445,1.295-3.813,3.202-4.103 M299.51,82.565c5.408,2.673,9.883,5.263,13.427,7.771l1.523,1.243 M285.242,77.094
		c2.776-0.415,5.947-0.062,9.511,1.057c1.368,0.228,3.005,0.798,4.911,1.71c6.445,3.067,11.688,6.03,15.729,8.89l4.103,3.388
		c1.099,0.933,2.011,2.134,2.735,3.605c0.705,1.43,1.016,2.829,0.934,4.196c2.092,1.451,2.787,3.357,2.082,5.72l2.549-0.995
		l0.187-3.201l4.196-7.149l-1.368-2.052l1.026-5.812c-2.196-4.311-5.149-7.854-8.859-10.631 M332.178,94.314l1.367,2.051
		 M320.615,109.266c0-0.394,0.134-0.736,0.403-1.026c0.29-0.27,0.632-0.404,1.026-0.404c0.393,0,0.725,0.134,0.994,0.404
		c0.291,0.29,0.436,0.632,0.436,1.026c0,0.394-0.145,0.725-0.436,0.995c-0.27,0.291-0.602,0.435-0.994,0.435
		c-0.395,0-0.736-0.145-1.026-0.435C320.749,109.991,320.615,109.659,320.615,109.266z M288.567,125.087l12.868,7.118l17.096-19.8
		h5.814 M366.867,121.015l-16.07-6.434l-1.585-0.622c-0.021,0-0.042,0-0.062,0c-1.657,0.414-3.233,0.87-4.725,1.367
		c-8.662,4.974-12.993,9.563-12.993,13.77c-0.414,0.787-0.301,2.404,0.342,4.849c0.643,2.425,1.627,4.581,2.953,6.466
		c1.326,1.886,6.311,7.056,14.951,15.511c8.621,8.455,12.051,18.992,10.289,31.612c-1.119,8.02-12.766,16.952-34.938,26.794
		l-3.668,2.61l-2.052,11.035c-4.869,7.17-10.049,11.076-15.541,11.719c-6.01-0.56-9.429-1.906-10.258-4.041l-4.787,1.555
		l3.264,2.704l3.264,2.704c7.171,0.994,13.46,1.057,18.868,0.187l15.2-16.785l16.879,7.118l5.19-5.315
		c-0.767,0.228-1.554,0.477-2.362,0.746 M350.797,114.581c-0.083-0.332-0.145-0.653-0.186-0.964
		c-0.705-4.186,1.035-8.724,5.221-13.615 M343.647,113.151h3.575l1.989,0.809 M283.066,79.985l2.176-2.891l2.206-2.922
		 M285.242,77.094l6.744-4.663l12.465-5.906 M264.26,113.431l19.895,32.419l11.78,17.065h3.17 M322.387,137.365
		c0.662,5.057,2.445,10.962,5.346,17.718c4.87,13.138,4.549,26.619-0.963,40.44l-2.486,10.631
		c17.488-5.989,27.674-13.294,30.555-21.914c1.305-8.352-3.119-17.034-13.273-26.048s-15.77-16.422-16.847-22.225
		s-1.647-8.942-1.71-9.418 M319.527,161.921c4.828,2.321,6.517,9.253,5.066,20.795l-5.782,17.593l-0.622,1.897
		c-1.926,16.35-3.75,25-5.47,25.954c-5.45,6.797-9.946,8.237-13.49,4.32l-5.72,3.171 M353.532,139.292
		c0.56,5.284,3.191,9.802,7.896,13.552c4.725,3.73,10.143,5.595,16.256,5.595c6.135,0,11.148-1.865,15.045-5.595
		c0.27-0.249,0.518-0.497,0.746-0.746c-0.975-3.294-2.104-6.662-3.387-10.102c-0.416-1.036-0.861-2.042-1.338-3.015
		c0.746,2.714,0.58,5.077-0.498,7.087c-1.223,2.321-3.305,3.481-6.246,3.481c-2.943,0-5.896-1.161-8.859-3.481
		c-2.943-2.321-5.016-5.129-6.217-8.424c-1.223-3.274-1.223-6.071,0-8.393c1.242-2.321,3.336-3.481,6.277-3.481
		c2.219,0,4.447,0.663,6.684,1.989c-0.311-0.249-0.621-0.487-0.932-0.715c-2.301-1.72-4.871-3.15-7.709-4.289l-4.383-1.741
		c-3.17,0.891-5.938,2.466-8.3,4.725C354.65,129.47,352.973,133.987,353.532,139.292z M361.179,101.401
		c2.86,0.85,5.511,1.813,7.958,2.891l3.574-0.871 M383.621,133.2c1.885,1.637,3.139,3.616,3.762,5.937
		c0.641,2.321,0.465,4.299-0.529,5.937c-0.973,1.638-2.477,2.456-4.506,2.456c-2.031,0-3.99-0.818-5.875-2.456
		c-1.865-1.637-3.119-3.616-3.762-5.937c-0.621-2.321-0.445-4.3,0.527-5.937c0.996-1.637,2.508-2.456,4.539-2.456
		C379.807,130.745,381.756,131.563,383.621,133.2z M379.891,127.76c0.705,0.436,1.42,0.932,2.145,1.492
		c2.963,2.321,5.057,5.119,6.279,8.393c0.166,0.456,0.311,0.902,0.436,1.337 M369.137,104.292
		c7.459,3.294,12.816,7.625,16.07,12.993c0.414,1.968,0.838,4.02,1.273,6.155c0.021,0.062,0.041,0.124,0.062,0.186
		c1.141,5.575,2.32,11.698,3.545,18.371 M399.598,146.317l-6.652-31.115c-3.791-4.829-9.697-8.859-17.717-12.092 M386.543,123.626
		c-0.746,2.031-3.273,3.17-7.584,3.419 M399.598,146.317l5.377-4.569l9.014-4.942l12.777-11.066 M401.34,154.461l-1.742-8.144
		 M403.826,176.312l-0.592-4.879 M373.52,239.785c0.684-0.29,1.357-0.58,2.02-0.87c11.646-5.181,17.863-9.169,18.65-11.968
		c0.02-0.104,0.041-0.195,0.061-0.278c3.068-14.9,4.291-31.188,3.67-48.864c-0.291-8.082-1.771-16.651-4.445-25.707
		 M427.355,173.702l-5.969-0.187l-8.92,3.947l-8.641-1.15l2.703,22.475 M421.947,173.235l-0.561,0.28l-14.703-0.497
		 M430.465,183.648l-4.943,4.663l-10.352,7.491 M358.102,73.955l-10.443-12.651 M360.713,99.785l4.787-7.056 M295.25,242.614
		l6.621,5.532l1.274,1.089l7.927,6.59l28.938-15.822c0.995,1.74,1.938,3.409,2.829,5.005l17.623,0.839l4.291-5.595l0.217-0.094
		c1.805-0.767,3.242-1.668,4.32-2.704c2.219-2.176,2.746-4.963,1.586-8.361c-3.523-3.626-10.02-4.052-19.489-1.274 M362.547,239.163
		c-1.182,0.271-2.094,0.084-2.735-0.559c-0.622-0.621-0.798-1.523-0.528-2.704c0.269-1.182,0.911-2.28,1.926-3.296
		c1.037-1.035,2.136-1.678,3.295-1.927c1.182-0.27,2.082-0.093,2.705,0.528c0.643,0.643,0.83,1.554,0.559,2.735
		c-0.248,1.16-0.891,2.259-1.926,3.295C364.826,238.252,363.729,238.895,362.547,239.163z M394.189,226.947
		c-0.186,0.83-0.373,1.658-0.561,2.487 M299.229,232.48l5.626-3.171c2.963-5.76,1.533-11.925-4.289-18.494l-4.041-0.435
		l-34.565-3.855c-9.677-0.021-17.034-7.771-22.069-23.25V163.63l-5.222-13.49l8.89-15.604c6.383-11.646,13.283-18.681,20.701-21.105
		 M296.525,210.381l13.365-9.419l8.921-0.653 M270.881,249.919l-1.243,12.185l5.315,0.901c0.248-2.301,0.621-4.642,1.119-7.024
		l5.999-3.389C278.01,253.711,274.279,252.819,270.881,249.919z M275.45,241.464c-2.279,1.823-4.331,3.729-6.155,5.719l1.586,2.736
		 M284.526,250.695c-4.165-1.927-7.19-5.004-9.076-9.231l13.272-4.258 M282.071,252.592l2.455-1.896l7.397,0.188l3.016,2.455
		l6.932-5.191 M269.295,247.183c-2.424,2.611-4.475,5.347-6.153,8.207c2.155,0.725,4.32,2.963,6.496,6.714 M294.939,253.338
		l1.523,3.388h4.912l2.175-0.777l-0.404-6.713 M291.986,239.91c-1.409,3.667-1.43,7.325-0.062,10.973 M290.588,295.146
		c-3.461-2.881-7.646-4.27-12.558-4.165l8.175,34.253l1.461,1.617l11.066,0.435l5.688-3.822l2.27-25.986l-4.166-14.733l2.27-4.912
		l-1.243-21.883 M301.375,256.726v5.316c0.02,7.832-1.865,15.654-5.658,23.468l1.306,9.636l4.165,14.019L301,320.136l-3.791,1.12
		l-3.202-0.374l-4.724-1.896c-0.498-0.788-0.934-2.176-1.306-4.165c-0.726-3.979-0.736-8.963-0.032-14.951
		c-0.02-0.062,0.86-1.638,2.643-4.725l-3.762-10.195 M258.479,267.637l10.506,0.56l0.653-6.093 M271.751,286.504l-3.388-12.185
		c-18.961,8.351-30.514,15.739-34.658,22.162l-0.684,8.548l2.269,3.419l-0.839,23.376l3.077,4.01
		c-3.938-12.745,7.471-29.178,34.223-49.299V286.504z M274.953,263.005c-0.497,4.683-0.486,9.222,0.031,13.614
		c0.227,2.135,0.59,4.228,1.088,6.279l1.213,5.035c2.527-2.03,5.709-3.025,9.541-2.983l-8.143-7.025l-1.71-16.07l5.098-9.263
		 M268.363,274.319l0.621-6.123 M276.072,282.898c-1.43,2.341-2.87,3.543-4.321,3.605 M278.03,290.98l-0.745-3.047 M271.751,286.535
		l3.389,12.185l1.337,15.821l2.299,2.549l7.43,8.144 M342.871,316.312c-2.176-3.522-1.141-10.112,3.107-19.769
		c0.021-0.083,0.053-0.155,0.094-0.218l0.311-0.652c2.425-5.43,6.165-12.257,11.222-20.484c0.518-8.123,4.797-14.807,12.837-20.049
		 M327.981,335.678l-1.46-11.19c15.479-23.395,24.109-41.32,25.892-53.774c1.182-3.542-2.011-12.112-9.573-25.705 M304.42,323.463
		l-0.373,4.228c-5.159,13.655-12.092,24.234-20.795,31.735l-15.479,7.554c-1.576,0.767-3.016,0.788-4.321,0.062
		c-1.989-1.139-3.647-4.02-4.974-8.641c-0.455-1.596-0.881-3.398-1.273-5.408l-2.426-1.928l-11.718-9.293l-2.487-1.99l-3.046-3.947
		 M298.11,362.473c-7.792,2.341-16.909,6.869-27.354,13.583c-4.228-1.119-9.305-3.958-15.231-8.518 M263.452,367.041
		c23.333-14.153,35.093-27.405,35.28-39.756 M367.893,281.406c-11.004,2.674-18.173,7.43-21.51,14.268 M167.932,143.426
		c4.601-1.989,8.849-4.03,12.745-6.124v-5.284c-1.886-0.933-3.202-2.321-3.948-4.165c12.931-8.89,22.484-16.236,28.659-22.038
		c0.394-2.134,0.135-3.854-0.777-5.16c-1.409-1.637-2.249-3.688-2.518-6.155c2.238-0.953,4.207,0.176,5.906,3.389
		c3.294,0.331,6.88-3.575,10.755-11.719c0.56-2.569-0.134-5.139-2.083-7.708l-0.777-6.465l-5.223-2.859l-2.766-1.523l-14.392-0.59
		l-17.967,14.392c-7.439,3.502-13.428,7.335-17.966,11.5c-4.87,4.476-8.062,9.325-9.574,14.547l-3.171,5.719l-5.906,10.6
		l0.529,6.683l6.341,13.304h3.854h2.207h4.196h7.709h3.294C167.352,143.644,167.642,143.53,167.932,143.426z M240.419,52.973
		c-0.726,3.896-4.869,7.781-12.433,11.656c-1.761,0-3.254-0.207-4.476-0.622c-1.575-0.539-2.684-1.43-3.326-2.673
		c-4.622,1.492-7.792,4.093-9.512,7.802 M223.51,64.008l-0.373-5.253l-1.15-2.175l-1.802,4.756 M262.457,65.811l-3.076-9.17
		c-7.254,0.104-15.076,3.015-23.469,8.734l-13.739,11.439l2.829,5.066c4.517-4.289,8.827-7.771,12.93-10.444
		C247.195,65.386,255.371,63.511,262.457,65.811z M258.354,50.891l1.027,5.75 M235.353,53.875l-12.216,4.88 M151.521,69.976
		l-5.906,10.817h-4.818c-0.766,0.601-1.533,1.264-2.3,1.989l4.756,6.963l-11.283,8.485l-3.947-2.113
		c-0.601,0.974-1.202,1.979-1.803,3.015l7.708,5.564l-7.305,6.466 M175.547,81.415l-2.953-2.394
		c-7.108,0.912-13.407,4.507-18.898,10.786l3.885,3.108 M148.349,114.581c-1.595-2.072-0.683-5.605,2.736-10.6
		c3.357-4.953,8.237-9.905,14.641-14.858c6.382-4.953,12.412-8.455,18.091-10.506c5.678-2.052,9.314-2.042,10.91,0.031
		c0.29,0.352,0.487,0.756,0.591,1.212c0.601,2.03-0.404,5.015-3.015,8.952c-0.083,0.146-0.176,0.28-0.28,0.404
		c-3.377,4.994-8.258,9.967-14.64,14.92c-6.403,4.953-12.434,8.434-18.091,10.444c-0.166,0.083-0.332,0.145-0.497,0.186
		c-4.435,1.534-7.574,1.762-9.418,0.684C148.981,115.224,148.64,114.933,148.349,114.581z M151.054,114.27
		c-0.332-0.207-0.622-0.466-0.87-0.777c-1.409-1.803-0.508-4.984,2.705-9.542c3.17-4.539,7.729-9.107,13.677-13.708
		c5.926-4.6,11.5-7.895,16.723-9.885c5.201-1.948,8.506-2.02,9.916-0.217c0.248,0.311,0.424,0.664,0.528,1.057 M190.312,88.719
		c2.446-3.605,3.43-6.32,2.954-8.144c-1.72-0.974-4.735-0.653-9.045,0.963c-5.222,1.989-10.797,5.284-16.723,9.885
		c-5.948,4.6-10.506,9.169-13.677,13.708c-2.673,3.771-3.75,6.61-3.232,8.517c1.637,0.933,4.507,0.653,8.61-0.839
		c0.27-1.223,1.171-2.839,2.705-4.849c2.507-3.315,6.02-6.714,10.537-10.195c4.497-3.502,8.673-6.061,12.527-7.678
		C187.287,89.113,189.069,88.657,190.312,88.719c-0.083,0.104-0.176,0.218-0.279,0.342c-3.191,4.58-7.75,9.169-13.677,13.77
		c-5.947,4.601-11.521,7.875-16.723,9.823c-0.145,0.041-0.29,0.093-0.435,0.155 M144.837,113.182l-22.66,18.992 M126.218,99.132
		c-2.507,4.373-5.025,9.366-7.553,14.982 M138.496,82.782c-3.502,3.253-6.994,7.699-10.475,13.335 M105.89,148.399l-2.86,1.71
		l-10.817,13.428 M156.059,143.769c0.103,1.036-0.052,2.248-0.466,3.636c-0.477,1.575-1.15,2.922-2.021,4.041
		c-0.85,1.119-1.647,1.679-2.394,1.679s-1.222-0.56-1.43-1.679c-0.187-1.119-0.042-2.466,0.435-4.041
		c0.415-1.388,0.974-2.601,1.679-3.636 M145.801,143.769h-4.663l-1.896,3.73l1.492,13.458l8.921-17.188 M141.946,172.023
		l-3.077-7.522l1.865-3.544 M153.665,174.23c-0.58,2.238-0.446,4.942,0.404,8.113c0.849,3.17,2.166,5.895,3.947,8.175
		c1.824,2.3,3.596,3.481,5.315,3.543c0.539,0.021,1.026-0.072,1.461-0.28c0.539-0.269,0.984-0.715,1.336-1.336
		c-0.456-0.021-0.922-0.114-1.398-0.28c-1.264-0.497-2.56-1.585-3.886-3.263c-1.803-2.28-3.129-5.004-3.979-8.175
		c-0.87-3.17-0.995-5.875-0.374-8.113c0.146-0.642,0.363-1.181,0.653-1.616C155.468,170.956,154.307,172.033,153.665,174.23z
		 M157.146,170.998h0.031c0.456,0.021,0.912,0.125,1.368,0.311c1.284,0.477,2.569,1.554,3.854,3.233
		c1.824,2.299,3.17,5.035,4.041,8.206c0.83,3.17,0.933,5.865,0.311,8.082c-0.166,0.643-0.373,1.181-0.622,1.617 M139.242,147.499
		l-12.402,24.09l-5.999,40.967l23.157-19.52l0.311,0.03l-2.363-21.043l9.356,22.846l1.026,2.487l14.267,4.041
		c1.119-0.601,2.124-1.223,3.015-1.865c4.87-3.481,6.559-7.439,5.066-11.874l-4.289-17.469v-6.776l11.843-23.654l-14.299,3.792
		c0.166,1.077,0.021,2.362-0.435,3.854c-0.477,1.575-1.15,2.922-2.021,4.041c-0.85,1.119-1.647,1.679-2.394,1.679
		c-0.746,0-1.222-0.56-1.429-1.679c-0.187-1.119-0.042-2.466,0.435-4.041c0.415-1.388,0.974-2.601,1.679-3.636 M151.303,194.869
		l-6.994-1.803 M222.173,76.814l-1.088-1.989l-5.19-2.829 M213.594,109.328c-0.083-0.042-0.146-0.083-0.187-0.125
		c-0.415-0.414-0.208-1.326,0.622-2.735c0.829-1.409,2.031-2.901,3.605-4.476c1.554-1.554,3.005-2.725,4.352-3.513V84.398
		l3.016-2.518 M221.986,98.479c0.042-0.042,0.083-0.073,0.125-0.093c1.181-0.684,2.009-0.943,2.487-0.777 M237.932,71.437
		l4.725,2.797c-4.538,1.513-9.025,4.714-13.459,9.604 M172.595,79.021l-2.984-2.425 M180.677,137.303
		c7.128-3.833,13.034-7.854,17.717-12.061c1.057-1.077,2.145-2.165,3.264-3.263l1.834-1.927c-0.083-0.062-0.166-0.135-0.248-0.218
		c-0.747-0.746-0.975-1.803-0.685-3.171c0.311-1.347,1.058-2.61,2.238-3.792c1.161-1.161,2.414-1.896,3.761-2.208
		c1.347-0.29,2.393-0.072,3.14,0.653 M198.394,125.242c-2.818,2.881-5.336,5.668-7.553,8.362
		c-6.59,7.937-10.631,14.961-12.123,21.075l0.373,39.477l-4.569,6.62l-15.231,22.442l2.3,10.258l2.269,6.154l1.181,7.118
		l28.286,4.289l16.878-5.222l13.552-10.692l6.901-0.436l27.322,6.186l17.469,0.591 M209.926,118.56
		c-1.637-0.871-2.953-0.756-3.948,0.342c-0.995,1.099-1.824,1.481-2.487,1.15 M167.062,143.769l0.87-0.218c0-0.062,0-0.103,0-0.125
		 M190.841,133.604l-8.61,6.155 M174.522,200.775l-4.911-1.243 M216.671,276.807c5.45-0.125,11.231-0.343,17.345-0.654
		c0.414-0.021,0.829-0.041,1.243-0.062c5.802-0.29,11.895-0.663,18.278-1.118l4.506-4.881c0.125-0.829,0.27-1.647,0.436-2.455
		c0.871-4.311,2.424-8.394,4.663-12.247 M216.609,276.807l0.062-0.032v0.032 M233.705,296.481l1.554-20.391 M122.737,216.504
		l4.476,9.231l20.298,15.138c3.958-5.325,9.408-5.739,16.35-1.243 M120.841,212.556l1.896,3.948l0.466,19.489l5.471,5.75
		 M114.406,236.956l8.797-0.963 M254.779,351.064c-0.27-11.335,7.73-22.66,23.996-33.975 M276.477,314.541
		c-7.854,0.208-18.992,9.284-33.415,27.23 M258.479,358.4c6.486,3.108,16.215-7.408,29.188-31.55 M257.391,101.464
		c3.523-0.415,6.497-0.208,8.921,0.622"/>
</g>
</svg>
